<?xml version="1.0" encoding="utf-8"?>
<!-- Generator: Adobe Illustrator 23.0.6, SVG Export Plug-In . SVG Version: 6.00 Build 0)  -->
<svg version="1.1" xmlns="http://www.w3.org/2000/svg" xmlns:xlink="http://www.w3.org/1999/xlink" x="0px" y="0px"
	 viewBox="0 0 640 484.6" style="enable-background:new 0 0 640 484.6;" xml:space="preserve">
<style type="text/css">
	.st0{fill:#18A075;stroke:#FFFFFF;stroke-width:2;}
	.st1{fill:#FFFFFF;}
	.st2{fill:none;stroke:url(#SVGID_1_);stroke-miterlimit:10;}
	.st3{fill:none;stroke:url(#SVGID_2_);stroke-miterlimit:10;}
	.st4{fill:none;stroke:url(#SVGID_3_);stroke-miterlimit:10;}
	.st5{fill:none;stroke:url(#SVGID_4_);stroke-miterlimit:10;}
	.st6{fill:none;stroke:url(#SVGID_5_);stroke-miterlimit:10;}
	.st7{fill:none;stroke:url(#SVGID_6_);stroke-miterlimit:10;}
	.st8{fill:none;stroke:url(#SVGID_7_);stroke-miterlimit:10;}
	.st9{fill:none;stroke:url(#SVGID_8_);stroke-miterlimit:10;}
	.st10{fill:#4E565C;}
	.st11{fill:url(#SVGID_9_);}
	.st12{fill:#158864;}
	.st13{fill-rule:evenodd;clip-rule:evenodd;fill:#4E565C;}
	.st14{fill-rule:evenodd;clip-rule:evenodd;fill:#7A8085;}
	.st15{fill-rule:evenodd;clip-rule:evenodd;fill:url(#SVGID_10_);}
	.st16{fill-rule:evenodd;clip-rule:evenodd;fill:url(#SVGID_11_);}
	.st17{fill-rule:evenodd;clip-rule:evenodd;fill:#A7ABAD;}
	.st18{fill:#222C33;}
	.st19{fill:#FFFFFF;stroke:#158864;stroke-miterlimit:10;}
	.st20{fill:none;stroke:#7A8085;stroke-width:0.8722;stroke-miterlimit:10;stroke-dasharray:3.1754;}
	.st21{fill:#E6E7E8;}
	.st22{fill:#E6E7E8;stroke:#FFFFFF;stroke-width:0.891;stroke-miterlimit:10;}
	.st23{fill-rule:evenodd;clip-rule:evenodd;fill:#FFFFFF;}
	.st24{fill:#3B465C;}
	.st25{fill:none;stroke:#222C33;stroke-width:0.8722;stroke-miterlimit:10;}
	.st26{fill:#222C33;stroke:#FFFFFF;stroke-width:0.6633;stroke-miterlimit:10;}
	.st27{fill:none;stroke:#FFFFFF;stroke-width:0.6633;stroke-miterlimit:10;}
</style>
<symbol  id="New_Symbol_4" viewBox="-38.8 -42.7 77.7 85.4">
	<path class="st0" d="M37.8,3.9c0,20.9-16.9,37.8-37.8,37.8c-20.9,0-37.9-17-37.9-37.8c0-16.8,11-31.1,26.2-36
		c1.3-0.4,2.5-1.1,3.4-2.1l7-7c0.7-0.7,1.7-0.7,2.4,0l7,7c0.9,0.9,2.1,1.6,3.3,2C26.8-27.3,37.8-13,37.8,3.9z"/>
	<path class="st1" d="M0-18.5c-6,0-11.6,2.3-15.8,6.6c-4.2,4.2-6.6,9.8-6.6,15.8c0,6,2.3,11.6,6.6,15.8c4.2,4.2,9.8,6.6,15.8,6.6
		s11.6-2.3,15.8-6.6c4.2-4.2,6.6-9.8,6.6-15.8c0-6-2.3-11.6-6.6-15.8C11.6-16.2,6-18.5,0-18.5z"/>
</symbol>
<g id="Layer_5">
	<linearGradient id="SVGID_1_" gradientUnits="userSpaceOnUse" x1="176.3024" y1="193.3305" x2="387.6337" y2="193.3305">
		<stop  offset="0" style="stop-color:#D3D5D6"/>
		<stop  offset="1" style="stop-color:#158864"/>
	</linearGradient>
	<polyline class="st2" points="387.6,235.9 289.2,235.9 176.6,150.7 	"/>
	<linearGradient id="SVGID_2_" gradientUnits="userSpaceOnUse" x1="190.7969" y1="163.3543" x2="387.6337" y2="163.3543">
		<stop  offset="0" style="stop-color:#D3D5D6"/>
		<stop  offset="1" style="stop-color:#158864"/>
	</linearGradient>
	<polyline class="st3" points="387.6,229.2 289.2,229.2 191.2,97.3 	"/>
	<linearGradient id="SVGID_3_" gradientUnits="userSpaceOnUse" x1="187.076" y1="223.1796" x2="387.6337" y2="223.1796">
		<stop  offset="0" style="stop-color:#D3D5D6"/>
		<stop  offset="1" style="stop-color:#158864"/>
	</linearGradient>
	<polyline class="st4" points="387.6,242.5 289.2,242.5 187.3,203.8 	"/>
	<linearGradient id="SVGID_4_" gradientUnits="userSpaceOnUse" x1="128.517" y1="239.2042" x2="387.6337" y2="239.2042">
		<stop  offset="0" style="stop-color:#D3D5D6"/>
		<stop  offset="1" style="stop-color:#158864"/>
	</linearGradient>
	<polyline class="st5" points="387.6,249.2 289.2,249.2 128.6,229.2 	"/>
	<linearGradient id="SVGID_5_" gradientUnits="userSpaceOnUse" x1="89.5828" y1="266.0829" x2="387.6337" y2="266.0829">
		<stop  offset="0" style="stop-color:#D3D5D6"/>
		<stop  offset="1" style="stop-color:#158864"/>
	</linearGradient>
	<polyline class="st6" points="387.6,255.9 289.2,255.9 89.6,276.3 	"/>
	<linearGradient id="SVGID_6_" gradientUnits="userSpaceOnUse" x1="144.9706" y1="290.5832" x2="387.6337" y2="290.5832">
		<stop  offset="0" style="stop-color:#D3D5D6"/>
		<stop  offset="1" style="stop-color:#158864"/>
	</linearGradient>
	<polyline class="st7" points="387.6,262.5 289.2,262.5 145.2,318.7 	"/>
	<linearGradient id="SVGID_7_" gradientUnits="userSpaceOnUse" x1="148.5074" y1="320.3585" x2="387.6337" y2="320.3585">
		<stop  offset="0" style="stop-color:#D3D5D6"/>
		<stop  offset="1" style="stop-color:#158864"/>
	</linearGradient>
	<polyline class="st8" points="387.6,269.2 289.2,269.2 148.8,371.6 	"/>
	<linearGradient id="SVGID_8_" gradientUnits="userSpaceOnUse" x1="171.5296" y1="341.4122" x2="387.6337" y2="341.4122">
		<stop  offset="0" style="stop-color:#D3D5D6"/>
		<stop  offset="1" style="stop-color:#158864"/>
	</linearGradient>
	<polyline class="st9" points="387.6,275.9 289.2,275.9 171.9,407.1 	"/>
</g>
<g id="Layer_2">
</g>
<g id="Layer_1">
	<g>
		<circle class="st10" cx="171.9" cy="405.5" r="23.1"/>
		<g>
			<g>
				<path class="st1" d="M156.6,401.2h2.5l1.2,4.3c0.3,1.1,0.5,2.3,0.5,2.3h0c0,0,0.2-1.2,0.5-2.3l1.2-4.3h2.5v8.7h-1.6v-5
					c0-0.7,0.1-1.8,0.1-1.8h0c0,0-0.2,1-0.4,1.6l-1.5,5.1H160l-1.5-5.1c-0.2-0.6-0.4-1.6-0.4-1.6h0c0,0,0.1,1.1,0.1,1.8v5h-1.6
					V401.2z"/>
				<path class="st1" d="M166.4,401.2h3.8c1,0,1.8,0.3,2.3,0.8c0.5,0.5,0.8,1.2,0.8,2c0,1.6-1.1,2.7-2.9,2.7h-2.1v3.1h-1.8V401.2z
					 M168.2,405.3h1.8c0.9,0,1.4-0.5,1.4-1.3c0-0.8-0.5-1.3-1.4-1.3h-1.8V405.3z"/>
				<path class="st1" d="M174.1,401.2h1.8v7.2h4.1v1.5h-5.8V401.2z"/>
				<path class="st1" d="M180.4,407.2h1.7c0.1,1,0.7,1.5,1.9,1.5c0.9,0,1.7-0.3,1.7-1.1c0-0.8-0.8-1-2.1-1.3c-1.5-0.4-3-0.8-3-2.6
					c0-1.7,1.4-2.6,3.3-2.6c1.9,0,3.2,1,3.3,2.7h-1.7c-0.1-0.9-0.8-1.3-1.7-1.3c-0.9,0-1.6,0.4-1.6,1c0,0.7,0.6,0.9,1.9,1.2
					c1.8,0.4,3.2,0.8,3.2,2.7c0,1.8-1.4,2.7-3.4,2.7C181.8,410,180.5,409,180.4,407.2z"/>
			</g>
		</g>
	</g>
	<g>
		<linearGradient id="SVGID_9_" gradientUnits="userSpaceOnUse" x1="478.0306" y1="146.4868" x2="478.0306" y2="358.5924">
			<stop  offset="0" style="stop-color:#158864"/>
			<stop  offset="1" style="stop-color:#0C513B"/>
		</linearGradient>
		<path class="st11" d="M478,358.6C419.6,358.6,372,311,372,252.5c0-58.5,47.6-106.1,106.1-106.1c58.5,0,106.1,47.6,106.1,106.1
			C584.1,311,536.5,358.6,478,358.6z M478,189.5c-34.8,0-63,28.3-63,63s28.3,63,63,63s63-28.3,63-63S512.8,189.5,478,189.5z"/>
		<g>
			<path class="st12" d="M421.9,239.7h2l3.2,5.4c0.3,0.5,0.7,1.3,0.7,1.3h0c0,0-0.1-1-0.1-1.7v-5.1h1.9v9.6h-1.9l-3.3-5.3
				c-0.3-0.5-0.7-1.3-0.7-1.3h0c0,0,0.1,1,0.1,1.7v5h-1.9V239.7z"/>
			<path class="st12" d="M430.7,245.9c0-2,1.4-3.6,3.4-3.6c2.2,0,3.4,1.7,3.4,4.2h-5c0.1,1.1,0.7,1.7,1.8,1.7c0.7,0,1.1-0.3,1.3-0.8
				h1.8c-0.3,1.2-1.3,2.3-3.1,2.3C432,249.5,430.7,247.9,430.7,245.9z M432.5,245.1h3.1c-0.1-0.9-0.6-1.5-1.5-1.5
				C433.1,243.7,432.7,244.2,432.5,245.1z"/>
			<path class="st12" d="M437.8,242.4h1v-2.2h1.8v2.2h1.2v1.2h-1.2v3.7c0,0.5,0.3,0.7,0.7,0.7c0.2,0,0.5,0,0.5,0v1.3
				c0,0-0.4,0-1.1,0c-0.9,0-1.9-0.4-1.9-1.7v-4.1h-1V242.4z"/>
			<path class="st12" d="M442.4,242.4h1.8l0.8,3.2c0.1,0.6,0.3,1.3,0.3,1.3h0c0,0,0.1-0.7,0.3-1.3l0.9-3.2h1.6l0.9,3.2
				c0.1,0.6,0.3,1.3,0.3,1.3h0c0,0,0.2-0.7,0.3-1.3l0.9-3.2h1.8l-2.1,6.9h-1.7l-0.9-3.4c-0.1-0.6-0.3-1.2-0.3-1.2h0
				c0,0-0.2,0.6-0.3,1.2l-0.9,3.4h-1.7L442.4,242.4z"/>
			<path class="st12" d="M452.4,245.9c0-2.1,1.5-3.7,3.6-3.7s3.6,1.6,3.6,3.7s-1.5,3.7-3.6,3.7S452.4,248,452.4,245.9z M457.8,245.9
				c0-1.3-0.6-2.3-1.8-2.3c-1.1,0-1.8,0.9-1.8,2.3s0.6,2.3,1.8,2.3C457.1,248.1,457.8,247.2,457.8,245.9z"/>
			<path class="st12" d="M462.3,243.5L462.3,243.5c0.5-0.8,0.9-1.2,1.7-1.2c0.2,0,0.3,0,0.4,0.1v1.6h0c-1.2-0.1-2.1,0.5-2.1,2v3.4
				h-1.8v-6.9h1.8V243.5z"/>
			<path class="st12" d="M467.8,246.2L467,247v2.3h-1.8v-9.6h1.8v5.3l2.5-2.6h2.2l-2.5,2.6l2.9,4.3h-2.2L467.8,246.2z"/>
			<path class="st12" d="M474.5,246.9c0-1.4,0.9-2.2,2.1-2.9c-0.6-0.7-0.8-1.2-0.8-2c0-1.3,1-2.2,2.5-2.2c1.5,0,2.5,0.9,2.5,2.2
				c0,1.2-0.7,1.8-1.7,2.3l1.3,1.7c0.2-0.5,0.3-1,0.4-1.6h1.6c-0.1,1.1-0.4,2.1-0.9,3l1.5,2h-2.2l-0.5-0.6c-0.7,0.5-1.6,0.8-2.6,0.8
				C475.6,249.5,474.5,248.4,474.5,246.9z M479.3,247.5l-1.8-2.3c-0.8,0.5-1.1,1-1.1,1.6c0,0.7,0.6,1.2,1.3,1.2
				C478.4,248,478.9,247.8,479.3,247.5z M478.3,243.3c0.6-0.4,0.8-0.8,0.8-1.3c0-0.5-0.4-0.8-0.8-0.8c-0.4,0-0.8,0.3-0.8,0.8
				C477.6,242.5,477.9,242.9,478.3,243.3z"/>
			<path class="st12" d="M485.7,246.4h1.9c0.1,1.2,0.8,1.6,2.2,1.6c1,0,1.9-0.4,1.9-1.2c0-0.9-0.9-1.1-2.4-1.5
				c-1.7-0.4-3.3-0.9-3.3-2.9c0-1.9,1.6-2.9,3.7-2.9c2.2,0,3.6,1.1,3.7,3h-1.9c-0.1-1-0.9-1.5-1.9-1.5c-1.1,0-1.7,0.4-1.7,1.1
				c0,0.8,0.7,1,2.1,1.3c2,0.4,3.6,0.9,3.6,3c0,2-1.6,3-3.8,3C487.2,249.6,485.8,248.4,485.7,246.4z"/>
			<path class="st12" d="M494.3,245.9c0-2,1.4-3.6,3.4-3.6c2.2,0,3.4,1.7,3.4,4.2h-5c0.1,1.1,0.7,1.7,1.8,1.7c0.7,0,1.1-0.3,1.3-0.8
				h1.8c-0.3,1.2-1.3,2.3-3.1,2.3C495.6,249.5,494.3,247.9,494.3,245.9z M496.1,245.1h3.1c-0.1-0.9-0.6-1.5-1.5-1.5
				C496.8,243.7,496.3,244.2,496.1,245.1z"/>
			<path class="st12" d="M501.6,245.9c0-2.1,1.3-3.7,3.5-3.7c1.8,0,2.9,1,3.1,2.5h-1.8c-0.1-0.6-0.6-1.1-1.3-1.1
				c-1.1,0-1.7,0.9-1.7,2.2c0,1.3,0.5,2.2,1.6,2.2c0.7,0,1.3-0.4,1.4-1.2h1.8c-0.1,1.5-1.3,2.6-3.1,2.6
				C503,249.5,501.6,248,501.6,245.9z"/>
			<path class="st12" d="M513.5,249.3v-0.8h0c-0.5,0.6-1,1-2,1c-1.5,0-2.4-1-2.4-2.5v-4.6h1.8v4.3c0,0.8,0.4,1.3,1.1,1.3
				c0.9,0,1.4-0.6,1.4-1.6v-4h1.8v6.9H513.5z"/>
			<path class="st12" d="M518.2,243.5L518.2,243.5c0.5-0.8,0.9-1.2,1.7-1.2c0.2,0,0.3,0,0.4,0.1v1.6h0c-1.2-0.1-2.1,0.5-2.1,2v3.4
				h-1.8v-6.9h1.8V243.5z"/>
			<path class="st12" d="M521.1,239.7h1.8v1.6h-1.8V239.7z M521.1,242.4h1.8v6.9h-1.8V242.4z"/>
			<path class="st12" d="M523.8,242.4h1v-2.2h1.8v2.2h1.2v1.2h-1.2v3.7c0,0.5,0.3,0.7,0.7,0.7c0.2,0,0.5,0,0.5,0v1.3
				c0,0-0.4,0-1.1,0c-0.9,0-1.9-0.4-1.9-1.7v-4.1h-1V242.4z"/>
			<path class="st12" d="M528.9,250.2h0.6c0.7,0,1-0.4,1-0.9c0-0.4-0.1-0.8-0.5-1.9l-1.9-4.9h1.9l1,3.1c0.2,0.6,0.4,1.5,0.4,1.5h0
				c0,0,0.2-0.9,0.4-1.5l1-3.1h1.8l-2.4,7.1c-0.5,1.5-1,2.1-2.4,2.1h-1.1V250.2z"/>
			<path class="st12" d="M445.8,258.7c0-2.9,1.8-5,4.6-5c2.4,0,3.8,1.4,4,3.2h-1.9c-0.2-1-0.9-1.6-2-1.6c-1.8,0-2.6,1.5-2.6,3.4
				c0,2,1,3.4,2.6,3.4c1.1,0,2-0.7,2.1-1.7h1.9c-0.1,0.8-0.4,1.7-1.1,2.3c-0.7,0.6-1.6,1-2.9,1C447.7,263.7,445.8,261.6,445.8,258.7
				z"/>
			<path class="st12" d="M455,260.1c0-2.1,1.5-3.7,3.6-3.7s3.6,1.6,3.6,3.7s-1.5,3.7-3.6,3.7S455,262.1,455,260.1z M460.4,260.1
				c0-1.3-0.6-2.3-1.8-2.3c-1.1,0-1.8,0.9-1.8,2.3s0.6,2.3,1.8,2.3C459.8,262.3,460.4,261.4,460.4,260.1z"/>
			<path class="st12" d="M464.9,257.5L464.9,257.5c0.5-0.7,1.1-1.1,2.1-1.1c1.4,0,2.4,1.1,2.4,2.6v4.5h-1.8v-4.2
				c0-0.7-0.4-1.3-1.2-1.3c-0.8,0-1.4,0.6-1.4,1.6v3.9h-1.8v-6.9h1.8V257.5z"/>
			<path class="st12" d="M469.8,256.6h1.9l1.1,3.6c0.2,0.7,0.3,1.1,0.3,1.1h0c0,0,0.1-0.4,0.3-1.1l1.1-3.6h1.8l-2.4,6.9h-1.8
				L469.8,256.6z"/>
			<path class="st12" d="M476.5,260c0-2,1.4-3.6,3.4-3.6c2.2,0,3.4,1.7,3.4,4.2h-5c0.1,1.1,0.7,1.7,1.8,1.7c0.7,0,1.1-0.3,1.3-0.8
				h1.8c-0.3,1.2-1.3,2.3-3.1,2.3C477.7,263.7,476.5,262.1,476.5,260z M478.3,259.3h3.1c-0.1-0.9-0.6-1.5-1.5-1.5
				C478.9,257.8,478.4,258.4,478.3,259.3z"/>
			<path class="st12" d="M485.9,257.7L485.9,257.7c0.5-0.8,0.9-1.2,1.7-1.2c0.2,0,0.3,0,0.4,0.1v1.6h0c-1.2-0.1-2.1,0.5-2.1,2v3.4
				h-1.8v-6.9h1.8V257.7z"/>
			<path class="st12" d="M488.5,263.7h1.8c0.1,0.4,0.5,0.8,1.4,0.8c1,0,1.5-0.5,1.5-1.4v-0.8h0c-0.4,0.5-0.9,0.8-1.8,0.8
				c-1.5,0-3-1.2-3-3.3c0-2.1,1.2-3.4,3-3.4c0.9,0,1.5,0.3,1.9,0.9h0v-0.7h1.8v6.4c0,1-0.3,1.6-0.8,2.1c-0.6,0.5-1.5,0.8-2.5,0.8
				C489.8,265.9,488.7,265.1,488.5,263.7z M493.3,259.7c0-1-0.5-1.9-1.6-1.9c-0.9,0-1.6,0.7-1.6,1.9c0,1.2,0.6,1.9,1.6,1.9
				C492.8,261.6,493.3,260.8,493.3,259.7z"/>
			<path class="st12" d="M495.9,260c0-2,1.4-3.6,3.4-3.6c2.2,0,3.4,1.7,3.4,4.2h-5c0.1,1.1,0.7,1.7,1.8,1.7c0.7,0,1.1-0.3,1.3-0.8
				h1.8c-0.3,1.2-1.3,2.3-3.1,2.3C497.2,263.7,495.9,262.1,495.9,260z M497.7,259.3h3.1c-0.1-0.9-0.6-1.5-1.5-1.5
				C498.3,257.8,497.9,258.4,497.7,259.3z"/>
			<path class="st12" d="M503.2,260.1c0-2.2,1.2-3.7,3-3.7c1,0,1.6,0.4,2,1h0v-3.6h1.8v9.6h-1.8v-0.9h0c-0.4,0.7-1.1,1.1-2.1,1.1
				C504.4,263.7,503.2,262.3,503.2,260.1z M508.2,260.1c0-1.3-0.4-2.2-1.6-2.2c-1,0-1.5,0.9-1.5,2.2c0,1.3,0.5,2.1,1.5,2.1
				C507.6,262.2,508.2,261.4,508.2,260.1z"/>
		</g>
		<g>
			<path class="st1" d="M411.1,285.4l1.1,1.8l-3.7,3.8c-0.6,0.6-1.7,1.5-1.7,1.5l0,0c0,0,1.2-0.4,2.1-0.7l5-1.7l1,1.7l-3.8,3.6
				c-0.7,0.7-1.6,1.5-1.6,1.5l0,0c0,0,1.3-0.4,2.2-0.7l5-1.5l1.1,1.8l-10.3,2.8l-1-1.7l4-3.9c0.5-0.5,1.4-1.2,1.4-1.2l0,0
				c0,0-1,0.4-1.7,0.7l-5.3,1.8l-1-1.6L411.1,285.4z"/>
			<path class="st1" d="M412.3,299.7c1.7-1.4,4-1.2,5.4,0.6c1.4,1.8,1.1,4.1-0.7,5.4s-4,1.2-5.4-0.6
				C410.2,303.3,410.6,301.1,412.3,299.7z M415.8,304.2c1.1-0.9,1.5-2,0.7-3c-0.7-0.9-1.9-0.9-3,0c-1.1,0.9-1.5,2-0.7,2.9
				C413.5,305.1,414.7,305,415.8,304.2z"/>
			<path class="st1" d="M420.9,306.1L420.9,306.1c0.9-0.2,1.6-0.1,2.2,0.5c0.1,0.2,0.2,0.3,0.3,0.4l-1.2,1.2l0,0
				c-0.8-1-1.9-1.2-3-0.2l-2.6,2.5l-1.3-1.4l5.4-5l1.3,1.4L420.9,306.1z"/>
			<path class="st1" d="M426,305.5l1.4,1.3l-7.1,7.4l-1.4-1.3L426,305.5z"/>
			<path class="st1" d="M423.6,312.4c1.5-1.8,3.5-2.2,4.9-1c0.8,0.7,1,1.4,0.9,2.2l0,0l2.4-2.9l1.5,1.2l-6.5,7.9l-1.4-1.2l0.6-0.7
				l0,0c-0.8,0.3-1.6,0.2-2.4-0.5C422.1,316.2,422.1,314.2,423.6,312.4z M427.6,315.8c0.9-1.1,1.1-2.1,0.2-2.9
				c-0.8-0.7-1.8-0.3-2.7,0.7c-0.9,1.1-1,2.1-0.2,2.7C425.8,317.1,426.8,316.8,427.6,315.8z"/>
			<path class="st1" d="M434.1,312.4l1.4,1l-2.1,2.9l-1.4-1L434.1,312.4z"/>
			<path class="st1" d="M431.1,320l1.5,1c-0.3,0.8,0,1.4,0.7,1.9c0.7,0.5,1.3,0.4,1.6,0c0.4-0.6-0.4-1.2-1.1-1.9
				c-1-0.9-1.9-1.9-1-3.3c0.9-1.3,2.4-1.3,3.8-0.4c1.6,1,2,2.4,1.3,3.7l-1.5-0.9c0.4-0.7,0.1-1.2-0.6-1.7c-0.6-0.4-1.2-0.4-1.5,0
				c-0.3,0.5,0.5,1.1,1.2,1.8c0.9,0.9,1.9,1.9,0.9,3.4c-0.8,1.2-2.3,1.3-3.9,0.3C430.8,322.9,430.4,321.4,431.1,320z"/>
			<path class="st1" d="M443.4,318.3l6.6,3.1l-0.7,1.6l-4.8-2.2l-1,2.2l4,1.9l-0.8,1.6l-4-1.9l-1.8,3.8l-1.9-0.9L443.4,318.3z"/>
			<path class="st1" d="M449.7,324.3l1.8,0.7l-2.6,6.9l-1.8-0.7L449.7,324.3z M450.7,321.6l1.8,0.7l-0.6,1.6l-1.8-0.7L450.7,321.6z"
				/>
			<path class="st1" d="M454.1,327.1L454.1,327.1c0.7-0.6,1.3-0.9,2.1-0.6c0.2,0.1,0.3,0.1,0.4,0.2l-0.5,1.6l0,0
				c-1.2-0.5-2.3-0.2-2.7,1.3l-1.1,3.4l-1.9-0.6l2.2-7l1.8,0.6L454.1,327.1z"/>
			<path class="st1" d="M455.8,331.7l1.8,0.4c-0.1,0.9,0.4,1.4,1.3,1.6c0.8,0.2,1.4,0,1.5-0.5c0.2-0.7-0.7-1-1.7-1.4
				c-1.2-0.6-2.4-1.2-2-2.8c0.4-1.5,1.8-2,3.5-1.6c1.9,0.4,2.7,1.6,2.5,3.1l-1.7-0.4c0.1-0.8-0.3-1.2-1.1-1.4
				c-0.7-0.2-1.3,0-1.4,0.5c-0.1,0.6,0.8,0.9,1.8,1.3c1.1,0.5,2.4,1.2,2,2.9c-0.3,1.4-1.8,2-3.6,1.6
				C456.4,334.5,455.5,333.2,455.8,331.7z"/>
			<path class="st1" d="M463.5,328.3l1,0.2l0.4-2.3l1.9,0.3l-0.4,2.3l1.2,0.2l-0.2,1.3l-1.2-0.2l-0.6,3.8c-0.1,0.5,0.2,0.8,0.6,0.8
				c0.2,0,0.6,0.1,0.6,0.1l-0.2,1.4c0,0-0.4,0-1.2-0.2c-0.9-0.2-1.9-0.7-1.7-2.1l0.7-4.3l-1-0.2L463.5,328.3z"/>
			<path class="st1" d="M470.4,333.6l2,0.1c0.1,1.2,0.8,1.8,2.2,1.8c1.1,0,2-0.3,2-1.2c0-1-0.9-1.2-2.5-1.7c-1.8-0.5-3.5-1-3.4-3.2
				c0.1-2,1.8-3,4-2.9c2.3,0.1,3.7,1.3,3.8,3.4l-2-0.1c-0.1-1-0.9-1.6-1.9-1.6c-1.1,0-1.9,0.4-1.9,1.1c0,0.8,0.7,1.1,2.2,1.5
				c2.1,0.5,3.8,1.1,3.7,3.3c-0.1,2.1-1.8,3.2-4.1,3.1C471.9,337.1,470.3,335.8,470.4,333.6z"/>
			<path class="st1" d="M482.5,326.7l2.1-0.2l4.4,9.9l-2.2,0.2l-0.8-2.1l-3.7,0.3l-0.5,2.2l-2.1,0.2L482.5,326.7z M482.7,333.1
				l2.7-0.2l-1.1-2.9c-0.2-0.5-0.5-1.5-0.5-1.5l0,0c0,0-0.2,1-0.3,1.6L482.7,333.1z"/>
			<path class="st1" d="M489.4,333.2l2-0.4c0.4,1.2,1.2,1.5,2.6,1.2c1-0.2,1.9-0.7,1.7-1.7c-0.2-1-1.2-1-2.8-1.1
				c-1.9-0.1-3.6-0.2-4-2.3c-0.4-2,1-3.3,3.3-3.8c2.3-0.4,3.9,0.4,4.5,2.4l-2,0.4c-0.3-1-1.2-1.3-2.2-1.1c-1.1,0.2-1.7,0.8-1.6,1.5
				c0.2,0.8,0.9,0.9,2.5,1c2.2,0,3.9,0.2,4.4,2.4c0.4,2-1,3.5-3.3,3.9C491.6,336.2,489.8,335.3,489.4,333.2z"/>
			<path class="st1" d="M497,324.4l7.2-2.3l0.5,1.7l-5.2,1.6l0.7,2.2l4.6-1.4l0.5,1.6l-4.6,1.4l0.8,2.6l5.2-1.7l0.5,1.7l-7.2,2.3
				L497,324.4z"/>
			<path class="st1" d="M507.1,321l4-2c1.1-0.5,2-0.6,2.8-0.3c0.8,0.3,1.4,0.8,1.8,1.7c0.8,1.7,0.3,3.5-1.7,4.4l-2.3,1.1l1.6,3.3
				l-1.9,0.9L507.1,321z M511.2,324.4l1.9-0.9c1-0.5,1.2-1.3,0.8-2.1c-0.4-0.9-1.2-1.1-2.1-0.6l-2,1L511.2,324.4z"/>
			<path class="st1" d="M514.8,317.1l1.7-1l5.2,8.8l-1.7,1L514.8,317.1z"/>
			<path class="st1" d="M526.3,320.9L526.3,320.9c0,0.7-0.2,1.3-1.2,2.1c-1.2,0.9-2.6,0.8-3.4-0.4c-0.9-1.3-0.1-2.5,1.1-3.6
				c0.9-0.8,1.3-1.2,1-1.7c-0.3-0.4-0.8-0.5-1.5,0c-0.8,0.5-0.9,1-0.6,1.7l-1.4,1c-0.7-1.1-0.5-2.6,1.2-3.8c1.8-1.2,3.1-0.9,4.1,0.5
				l2.1,3.1c0.3,0.5,0.6,0.7,0.8,0.7l0,0.1l-1.5,1.1C526.8,321.4,526.6,321.1,526.3,320.9z M525.4,319.4l-0.6-0.9
				c-0.2,0.4-0.5,0.8-0.9,1.1c-0.7,0.8-1,1.2-0.6,1.8c0.4,0.6,0.9,0.5,1.5,0.1C525.6,320.9,525.8,320,525.4,319.4z"/>
			<path class="st1" d="M524.6,314.1l0.8-0.6l-1.4-1.8l1.5-1.2l1.4,1.8l1-0.8l0.8,1l-1,0.8l2.4,3c0.3,0.4,0.7,0.4,1,0.1
				c0.2-0.2,0.4-0.4,0.4-0.4l0.9,1.1c0,0-0.3,0.3-0.9,0.8c-0.7,0.6-1.8,1-2.7-0.1l-2.7-3.4l-0.8,0.6L524.6,314.1z"/>
			<path class="st1" d="M528.1,311.3l0.7-0.7l-0.4-0.5c-1.2-1.3-0.6-2.7,0.9-3.8l1,1.1c-0.7,0.6-0.9,0.9-0.4,1.5l0.4,0.4l1-0.9
				l0.9,1l-1,0.9l4,4.5l-1.4,1.3l-4-4.4l-0.7,0.7L528.1,311.3z"/>
			<path class="st1" d="M534.2,310.8c-1.6-1.5-1.7-3.8-0.2-5.5c1.6-1.7,3.9-1.6,5.5-0.1c1.6,1.5,1.7,3.8,0.2,5.5
				C538,312.4,535.7,312.3,534.2,310.8z M538.1,306.7c-1-1-2.2-1.2-3-0.3c-0.8,0.9-0.6,2,0.5,3c1,1,2.2,1.2,3,0.3
				C539.3,308.8,539.1,307.7,538.1,306.7z"/>
			<path class="st1" d="M539.3,301.3L539.3,301.3c-0.3-0.9-0.4-1.6,0.2-2.2c0.1-0.2,0.2-0.3,0.3-0.3l1.3,1.1l0,0
				c-0.9,0.9-0.9,2.1,0.3,3l2.8,2.2l-1.2,1.5l-5.7-4.6l1.2-1.5L539.3,301.3z"/>
			<path class="st1" d="M540.4,298.3l1-1.6l0.8,0.5l0,0c-0.4-0.7-0.4-1.6,0.1-2.4c0.5-0.8,1.3-1.1,2.2-1l0,0
				c-0.4-0.9-0.4-1.8,0.1-2.6c0.8-1.3,2.1-1.5,3.5-0.6l4.2,2.6l-1,1.6l-3.9-2.5c-0.7-0.4-1.3-0.3-1.7,0.3c-0.4,0.7-0.2,1.4,0.6,2
				l3.6,2.3l-1,1.6l-3.9-2.5c-0.7-0.4-1.3-0.3-1.7,0.3c-0.4,0.7-0.2,1.4,0.6,2l3.6,2.3l-1,1.6L540.4,298.3z"/>
		</g>
		<g>
			<path class="st1" d="M425.3,189.2c-2.7-3.9-2.4-8.7,1.5-11.4c3.3-2.3,6.6-1.7,8.6,0.7l-2.7,1.9c-1.2-1.2-2.8-1.3-4.3-0.3
				c-2.5,1.7-2.2,4.6-0.4,7.2c1.9,2.7,4.7,3.7,6.9,2.1c1.6-1.1,2-2.8,1.2-4.3l2.6-1.8c0.7,1.2,1,2.7,0.7,4.2
				c-0.3,1.5-1.2,2.9-3.1,4.2C432.7,194.2,428.1,193.2,425.3,189.2z"/>
			<path class="st1" d="M448.3,183.2L448.3,183.2c-0.2,1.1-0.7,2-2.5,2.9c-2.2,1-4.2,0.6-5.2-1.5c-1.1-2.3,0.5-3.9,2.7-5.4
				c1.6-1.1,2.4-1.6,2-2.4c-0.4-0.8-1.2-1-2.3-0.4c-1.3,0.6-1.7,1.4-1.4,2.4l-2.5,1.1c-0.8-1.9-0.1-4.2,2.9-5.6
				c3.2-1.5,5.1-0.6,6.2,1.8l2.5,5.4c0.4,0.8,0.7,1.2,1,1.3l0,0.1l-2.7,1.2C449,184.1,448.6,183.6,448.3,183.2z M447.2,180.6
				l-0.7-1.6c-0.4,0.5-1,1-1.7,1.5c-1.3,1-1.9,1.7-1.4,2.7c0.5,1,1.3,1,2.3,0.6C447.2,183.1,447.7,181.7,447.2,180.6z"/>
			<path class="st1" d="M448.6,172l1.5-0.5L449,168l2.9-0.9l1.1,3.5l1.9-0.6l0.6,1.9l-1.9,0.6l1.9,5.9c0.3,0.8,0.8,1,1.5,0.7
				c0.4-0.1,0.9-0.3,0.9-0.3l0.7,2.2c0,0-0.7,0.3-1.8,0.6c-1.4,0.5-3.2,0.4-3.8-1.7l-2.1-6.5l-1.5,0.5L448.6,172z"/>
			<path class="st1" d="M457.8,175c-0.6-3.4,1.3-6.5,4.9-7.1c3.5-0.6,6.4,1.6,7.1,5c0.6,3.4-1.3,6.5-4.9,7.1
				C461.3,180.6,458.4,178.4,457.8,175z M466.6,173.4c-0.4-2.2-1.7-3.6-3.6-3.2c-1.9,0.3-2.6,2-2.2,4.3c0.4,2.2,1.7,3.5,3.6,3.2
				C466.3,177.3,467,175.6,466.6,173.4z"/>
			<path class="st1" d="M475.1,170.1c0.2-4.8,3.4-8.3,8.2-8.1c4,0.2,6.2,2.7,6.4,5.8l-3.3-0.2c-0.2-1.6-1.4-2.8-3.3-2.9
				c-3-0.2-4.5,2.3-4.7,5.5c-0.2,3.3,1.4,5.8,4.1,5.9c1.9,0.1,3.3-1,3.6-2.7l3.2,0.2c-0.2,1.4-0.8,2.8-2,3.7c-1.2,1-2.8,1.6-5,1.5
				C477.9,178.7,474.8,175,475.1,170.1z"/>
			<path class="st1" d="M493.1,163.5l3,0.6l-3,15.9l-3-0.6L493.1,163.5z"/>
			<path class="st1" d="M495.9,174.4c1-3.3,4.2-5.1,7.6-4.1s5,4.4,4,7.7s-4.2,5.1-7.6,4.1C496.5,181,494.9,177.7,495.9,174.4z
				 M504.5,177.1c0.7-2.2,0.1-4-1.7-4.5c-1.8-0.6-3.3,0.6-3.9,2.8c-0.7,2.2-0.1,3.9,1.7,4.5C502.4,180.4,503.9,179.3,504.5,177.1z"
				/>
			<path class="st1" d="M513.1,187.2l0.6-1.2l-0.1,0c-1.2,0.6-2.3,0.7-3.7,0c-2.3-1.2-2.9-3.3-1.7-5.6l3.5-6.9l2.7,1.4l-3.2,6.5
				c-0.6,1.2-0.4,2.2,0.8,2.7c1.3,0.6,2.6,0.1,3.3-1.3l3-6l2.8,1.4l-5.2,10.4L513.1,187.2z"/>
			<path class="st1" d="M519.9,184.2c2.1-2.9,5.3-3.8,7.6-2.1c1.3,1,1.7,2.2,1.7,3.3l0.1,0l3.5-4.9l2.5,1.8l-9.5,13.1l-2.4-1.7
				l0.9-1.2l0,0c-1.2,0.5-2.6,0.4-3.9-0.5C517.9,190.4,517.7,187.3,519.9,184.2z M526.7,189.2c1.3-1.8,1.6-3.4,0-4.6
				c-1.4-1-3-0.3-4.2,1.5c-1.3,1.8-1.4,3.4-0.1,4.3C523.9,191.5,525.4,190.9,526.7,189.2z"/>
		</g>
	</g>
</g>
<g id="Layer_3">
	<g id="XMLID_6_">
		<g>
			<g>
				<circle class="st13" cx="155.8" cy="150.7" r="35.4"/>
				<g>
					<path class="st1" d="M137.6,136.7h3.3l1.3,4.8h0l1.3-4.8h3.3v8.6h-2.3v-5.4h0l-1.4,5.4h-1.8l-1.4-5.4h0v5.4h-2.2V136.7z"/>
					<path class="st1" d="M147.4,142.3c0-1.9,1.3-3.2,3.3-3.2c2,0,3.3,1.4,3.3,3.2s-1.3,3.2-3.3,3.2
						C148.8,145.5,147.4,144.1,147.4,142.3z M151.8,142.3c0-1-0.4-1.7-1.1-1.7c-0.7,0-1,0.7-1,1.7s0.3,1.7,1,1.7
						C151.5,144,151.8,143.3,151.8,142.3z"/>
					<path class="st1" d="M156.9,144.5L156.9,144.5l0,0.8h-2.2v-8.6h2.3v3.1h0c0.4-0.5,1-0.8,1.8-0.8c1.6,0,2.6,1.5,2.6,3.2
						c0,2.1-1,3.3-2.6,3.3C158,145.5,157.3,145.2,156.9,144.5z M159.1,142.2c0-1-0.4-1.6-1.1-1.6c-0.7,0-1.1,0.7-1.1,1.6
						c0,0.9,0.5,1.6,1.1,1.6C158.7,143.8,159.1,143.2,159.1,142.2z"/>
					<path class="st1" d="M161.9,136.7h2.3v1.7h-2.3V136.7z M161.9,139.2h2.3v6.1h-2.3V139.2z"/>
					<path class="st1" d="M165,136.7h2.3v8.6H165V136.7z"/>
					<path class="st1" d="M167.9,142.2c0-1.8,1.3-3.2,3.3-3.2c1,0,1.7,0.3,2.2,0.8c0.7,0.7,1.1,1.8,1.1,3h-4.4
						c0.1,0.7,0.5,1.1,1.2,1.1c0.4,0,0.7-0.2,0.8-0.5h2.2c-0.1,0.6-0.6,1.1-1.2,1.5c-0.6,0.4-1.2,0.5-2,0.5
						C169.2,145.5,167.9,144.1,167.9,142.2z M170.1,141.6h2.1c-0.1-0.7-0.5-1.1-1-1.1C170.6,140.5,170.2,140.9,170.1,141.6z"/>
					<path class="st1" d="M128.4,151.1h2.6l1.2,4c0.2,0.7,0.4,1.7,0.4,1.7h0c0,0,0.2-0.9,0.4-1.7l1.1-4h2.5l-2.8,8.6h-2.8
						L128.4,151.1z"/>
					<path class="st1" d="M137.1,151.1h3.9c1.1,0,1.9,0.3,2.4,0.8c0.6,0.5,1,1.3,1,2.3c0,1.7-1.2,2.9-2.9,2.9h-1.9v2.6h-2.5V151.1z
						 M139.6,155.1h1.4c0.6,0,1-0.4,1-1c0-0.6-0.4-0.9-1-0.9h-1.3V155.1z"/>
					<path class="st1" d="M145.1,151.1h2.5l2.8,4.8h0v-4.8h2.4v8.6h-2.6l-2.7-4.8h0v4.8h-2.4V151.1z"/>
					<path class="st1" d="M156.5,151.1h2.1l-3,8.6h-2.1L156.5,151.1z"/>
					<path class="st1" d="M158.6,156.9h2.6c0.1,0.7,0.6,1,1.4,1c0.5,0,1.1-0.2,1.1-0.7c0-0.5-0.6-0.6-1.6-0.9
						c-1.4-0.4-3.2-0.8-3.2-2.7c0-2,1.6-2.7,3.5-2.7c1.8,0,3.4,0.7,3.4,2.6h-2.5c-0.1-0.5-0.4-0.8-1.1-0.8c-0.5,0-0.9,0.3-0.9,0.6
						c0,0.5,0.7,0.6,2,0.9c1.4,0.3,2.9,0.9,2.9,2.7c0,1.9-1.7,2.9-3.7,2.9C160.3,159.9,158.7,158.9,158.6,156.9z"/>
					<path class="st1" d="M166.9,151.1h3.9c2.5,0,4.2,1.6,4.2,4.3c0,2.7-1.6,4.3-4.3,4.3h-3.8V151.1z M170.6,157.6
						c1.1,0,1.9-0.7,1.9-2.2c0-1.4-0.8-2.2-1.9-2.2h-1.1v4.4H170.6z"/>
					<path class="st1" d="M175.8,151.1h3.9c1.1,0,1.9,0.3,2.4,0.8c0.6,0.5,1,1.3,1,2.3c0,1.7-1.2,2.9-2.9,2.9h-1.9v2.6h-2.5V151.1z
						 M178.3,155.1h1.4c0.6,0,1-0.4,1-1c0-0.6-0.4-0.9-1-0.9h-1.3V155.1z"/>
				</g>
			</g>
		</g>
	</g>
	<g>
		<circle class="st14" cx="76.5" cy="278.4" r="39.3"/>
		<g>
			<g>
				<path class="st1" d="M51.6,270.3l2.5-0.3l3.3,4.5l0,0l-0.6-4.8l2.4-0.3l1,8.5l-2.6,0.3l-3.3-4.5l0,0l0.6,4.8l-2.4,0.3
					L51.6,270.3z"/>
				<path class="st1" d="M60.6,274.8c-0.2-1.8,0.9-3.4,2.9-3.6c1-0.1,1.7,0.1,2.3,0.6c0.8,0.6,1.3,1.6,1.4,2.8l-4.3,0.5
					c0.2,0.7,0.6,1.1,1.3,1c0.4,0,0.7-0.2,0.8-0.5l2.2-0.3c-0.1,0.6-0.4,1.1-1,1.6c-0.5,0.4-1.1,0.6-1.9,0.7
					C62.3,277.8,60.8,276.6,60.6,274.8z M62.8,273.9l2.1-0.2c-0.2-0.7-0.6-1-1.1-1C63.1,272.7,62.8,273.2,62.8,273.9z"/>
				<path class="st1" d="M66.9,271l0.8-0.1l-0.2-2l2.2-0.3l0.2,2l1.2-0.1l0.2,1.4l-1.2,0.1l0.3,2.5c0.1,0.6,0.5,0.6,1.2,0.4l0.2,1.7
					c-0.3,0.1-0.7,0.2-1.1,0.3c-1.5,0.2-2.3-0.2-2.4-1.6l-0.3-3l-0.8,0.1L66.9,271z"/>
				<path class="st1" d="M71.4,270.5l2.3-0.3l0.8,2.1c0.2,0.5,0.4,1.2,0.4,1.2l0,0c0,0,0.1-0.8,0.1-1.3l0.3-2.2l1.9-0.2l0.8,2.1
					c0.2,0.5,0.4,1.3,0.4,1.3l0,0c0,0,0.1-0.8,0.2-1.3l0.3-2.3l2.3-0.3l-1.2,6.3l-2.2,0.3l-0.9-2.4c-0.2-0.5-0.4-1.1-0.4-1.1l0,0
					c0,0-0.1,0.7-0.1,1.2l-0.3,2.6l-2.1,0.2L71.4,270.5z"/>
				<path class="st1" d="M81.5,272.4c-0.2-1.8,0.9-3.4,3-3.6c2-0.2,3.5,1,3.7,2.8s-0.9,3.4-2.9,3.6
					C83.2,275.4,81.7,274.2,81.5,272.4z M85.8,271.9c-0.1-1-0.6-1.7-1.2-1.6c-0.7,0.1-0.9,0.8-0.8,1.8c0.1,1,0.5,1.7,1.2,1.6
					C85.7,273.6,86,272.9,85.8,271.9z"/>
				<path class="st1" d="M90.6,269.2L90.6,269.2c0.4-0.8,1-1.2,1.8-1.3c0.2,0,0.3,0,0.4,0l0.2,1.9l0,0c-1.3-0.1-2,0.6-1.9,2l0.3,2.5
					l-2.2,0.3l-0.7-6.1l2.1-0.2L90.6,269.2z"/>
				<path class="st1" d="M96.4,271.5l-0.4,0.6l0.2,1.7l-2.2,0.3l-1-8.5l2.2-0.3l0.5,4.2l1.3-2l2.5-0.3l-1.8,2.5l2.7,3.6l-2.5,0.3
					L96.4,271.5z"/>
				<path class="st1" d="M53.8,290.3l2.5-0.3c0.2,0.7,0.7,0.9,1.5,0.8c0.5-0.1,1.1-0.3,1-0.8c-0.1-0.5-0.6-0.6-1.7-0.7
					c-1.5-0.2-3.2-0.5-3.5-2.3c-0.2-1.9,1.3-2.9,3.2-3.1c1.8-0.2,3.5,0.3,3.7,2.2l-2.5,0.3c-0.1-0.5-0.5-0.7-1.2-0.6
					c-0.5,0.1-0.9,0.4-0.9,0.7c0.1,0.5,0.8,0.5,2.1,0.6c1.5,0.2,3,0.6,3.2,2.4c0.2,1.9-1.3,3-3.3,3.3
					C55.9,293,54.1,292.3,53.8,290.3z"/>
				<path class="st1" d="M61.8,289.1c-0.2-1.8,0.9-3.4,2.9-3.6c1-0.1,1.7,0.1,2.3,0.6c0.8,0.6,1.3,1.6,1.4,2.8l-4.3,0.5
					c0.2,0.7,0.6,1.1,1.3,1c0.4,0,0.7-0.2,0.8-0.5l2.2-0.3c-0.1,0.6-0.4,1.1-1,1.6c-0.5,0.4-1.1,0.6-1.9,0.7
					C63.5,292.1,62,290.9,61.8,289.1z M63.9,288.2L66,288c-0.2-0.7-0.6-1-1.1-1C64.2,287.1,63.9,287.5,63.9,288.2z"/>
				<path class="st1" d="M68.6,288.3c-0.2-1.8,1-3.4,3-3.6c1.7-0.2,3,0.7,3.3,2.1l-2.2,0.3c-0.2-0.5-0.5-0.8-1-0.8
					c-0.7,0.1-0.9,0.7-0.8,1.8c0.1,1,0.5,1.6,1.2,1.5c0.5-0.1,0.8-0.5,0.8-1.2l2.2-0.3c0.2,1.5-0.9,2.8-2.7,3
					C70.3,291.4,68.8,290.2,68.6,288.3z"/>
				<path class="st1" d="M79.9,290.1l-0.1-0.8l0,0c-0.4,0.7-0.9,1.1-1.8,1.2c-1.5,0.2-2.3-0.7-2.4-2.1l-0.5-3.9l2.2-0.3l0.4,3.4
					c0.1,0.6,0.4,0.9,0.9,0.9c0.6-0.1,0.9-0.5,0.8-1.2l-0.4-3.3l2.2-0.3l0.7,6.1L79.9,290.1z"/>
				<path class="st1" d="M84.4,284.3L84.4,284.3c0.4-0.8,1-1.2,1.8-1.3c0.2,0,0.3,0,0.4,0l0.2,1.9l0,0c-1.3-0.1-2,0.6-1.9,2l0.3,2.5
					l-2.2,0.3l-0.7-6.1l2.1-0.2L84.4,284.3z"/>
				<path class="st1" d="M86.8,280.7l2.2-0.3l0.2,1.7l-2.2,0.3L86.8,280.7z M87,283.1l2.2-0.3l0.7,6.1l-2.2,0.3L87,283.1z"/>
				<path class="st1" d="M89.8,282.8l0.8-0.1l-0.2-2l2.2-0.3l0.2,2l1.2-0.1l0.2,1.4l-1.2,0.1l0.3,2.5c0.1,0.6,0.5,0.6,1.2,0.4
					l0.2,1.7c-0.3,0.1-0.7,0.2-1.1,0.3c-1.5,0.2-2.3-0.2-2.4-1.6l-0.3-3l-0.8,0.1L89.8,282.8z"/>
				<path class="st1" d="M95.7,288.5l0.7-0.1c0.5-0.1,0.7-0.2,0.6-0.5c0-0.2-0.2-0.5-0.4-0.8l-2.5-4.8l2.4-0.3l1,2.3
					c0.3,0.6,0.5,1.4,0.5,1.4l0,0c0,0,0.1-0.9,0.2-1.5l0.5-2.5l2.2-0.3l-1.4,6.3c-0.3,1.6-1,2.2-2.2,2.3l-1.6,0.2L95.7,288.5z"/>
			</g>
		</g>
	</g>
	<g>
		<path class="st14" d="M191.6,221.4l-129.2-13c-0.9-0.1-1.6-0.9-1.5-1.8l2.8-27.5c0.1-0.9,0.9-1.6,1.8-1.5l129.2,13
			c0.9,0.1,1.6,0.9,1.5,1.8l-2.8,27.5C193.4,220.8,192.6,221.5,191.6,221.4z"/>
		<g>
			<g>
				<path class="st1" d="M75.8,194.3c0.3-2.5,2.2-4.3,4.8-4c0.9,0.1,1.7,0.4,2.3,0.9c0.8,0.7,1.2,1.7,1.2,2.8l-2.5-0.3
					c0-0.7-0.5-1.3-1.3-1.4c-1.2-0.1-1.9,0.8-2,2.2c-0.1,1.4,0.4,2.5,1.5,2.6c0.9,0.1,1.5-0.4,1.6-1.2l2.5,0.3
					c-0.2,0.9-0.7,1.7-1.3,2.2c-0.8,0.6-1.7,0.8-3,0.7C77,198.9,75.5,196.8,75.8,194.3z"/>
				<path class="st1" d="M85,190.9l2.3,0.2l-0.9,8.5l-2.3-0.2L85,190.9z"/>
				<path class="st1" d="M87.3,196.7c0.2-1.8,1.6-3.1,3.7-2.9c2,0.2,3.2,1.7,3,3.6c-0.2,1.8-1.6,3.1-3.6,2.9S87.1,198.5,87.3,196.7z
					 M91.7,197.1c0.1-1-0.2-1.8-0.9-1.8c-0.7-0.1-1.1,0.6-1.2,1.6s0.2,1.7,0.9,1.8C91.1,198.8,91.6,198.1,91.7,197.1z"/>
				<path class="st1" d="M98.2,200.8l0.1-0.8l0,0c-0.5,0.6-1.2,0.9-2,0.8c-1.5-0.1-2.1-1.2-1.9-2.6l0.4-3.9l2.2,0.2l-0.3,3.4
					c-0.1,0.6,0.2,1,0.7,1c0.6,0.1,1-0.3,1-1l0.3-3.3l2.3,0.2l-0.6,6.1L98.2,200.8z"/>
				<path class="st1" d="M101.3,198c0.2-1.9,1.4-3.1,3-2.9c0.9,0.1,1.3,0.5,1.6,1l0,0l0.3-3.1l2.2,0.2l-0.9,8.5l-2.1-0.2l0.1-0.8
					l0,0c-0.5,0.6-1.1,0.9-1.9,0.9C102.1,201.4,101,200.1,101.3,198z M105.8,198.4c0.1-0.9-0.3-1.6-1-1.7c-0.7-0.1-1.2,0.5-1.3,1.4
					c-0.1,0.9,0.3,1.6,0.9,1.7C105.1,200,105.7,199.3,105.8,198.4z"/>
				<path class="st1" d="M113.8,193.8l2.5,0.3l2.3,8.8l-2.6-0.3l-0.3-1.3l-2.9-0.3l-0.5,1.2l-2.5-0.2L113.8,193.8z M113.5,199.3
					l1.8,0.2l-0.4-1.7c-0.1-0.4-0.2-1.1-0.2-1.1l0,0c0,0-0.2,0.7-0.4,1.1L113.5,199.3z"/>
				<path class="st1" d="M118.7,199.8c0.2-1.8,1.7-3.1,3.7-2.9c1.7,0.2,2.8,1.3,2.8,2.7l-2.2-0.2c-0.1-0.6-0.3-0.9-0.8-0.9
					c-0.7-0.1-1.1,0.5-1.2,1.6c-0.1,1,0.2,1.7,0.9,1.7c0.5,0.1,0.9-0.3,1-1l2.2,0.2c-0.2,1.5-1.5,2.5-3.3,2.3
					C119.7,203.2,118.5,201.6,118.7,199.8z"/>
				<path class="st1" d="M125.4,200.5c0.2-1.8,1.7-3.1,3.7-2.9c1.7,0.2,2.8,1.3,2.8,2.7l-2.2-0.2c-0.1-0.6-0.3-0.9-0.8-0.9
					c-0.7-0.1-1.1,0.5-1.2,1.6c-0.1,1,0.2,1.7,0.9,1.7c0.5,0.1,0.9-0.3,1-1l2.2,0.2c-0.2,1.5-1.5,2.5-3.3,2.3
					C126.4,203.8,125.2,202.3,125.4,200.5z"/>
				<path class="st1" d="M132,201.1c0.2-1.8,1.6-3.1,3.6-2.9c1,0.1,1.6,0.5,2.2,1c0.7,0.8,0.9,1.9,0.8,3.1l-4.3-0.4
					c0.1,0.7,0.4,1.2,1.1,1.2c0.4,0,0.7-0.1,0.9-0.4l2.2,0.2c-0.2,0.5-0.7,1-1.3,1.3c-0.6,0.3-1.2,0.4-2,0.3
					C133,204.5,131.8,203,132,201.1z M134.3,200.7l2.1,0.2c0-0.7-0.4-1.1-0.9-1.2C134.9,199.7,134.5,200,134.3,200.7z"/>
				<path class="st1" d="M139.7,196.4l2.3,0.2l-0.9,8.5l-2.3-0.2L139.7,196.4z"/>
				<path class="st1" d="M142,202.1c0.2-1.8,1.6-3.1,3.6-2.9c1,0.1,1.6,0.5,2.2,1c0.7,0.8,0.9,1.9,0.8,3.1l-4.3-0.4
					c0.1,0.7,0.4,1.2,1.1,1.2c0.4,0,0.7-0.1,0.9-0.4l2.2,0.2c-0.2,0.5-0.7,1-1.3,1.3c-0.6,0.3-1.2,0.4-2,0.3
					C143,205.5,141.8,204,142,202.1z M144.3,201.7l2.1,0.2c0-0.7-0.4-1.1-0.9-1.2C144.8,200.7,144.4,201,144.3,201.7z"/>
				<path class="st1" d="M151.4,200.9L151.4,200.9c0.6-0.7,1.2-0.9,2-0.9c0.2,0,0.3,0.1,0.4,0.1l-0.2,1.9l0,0
					c-1.3-0.4-2.1,0.2-2.3,1.5l-0.2,2.5l-2.2-0.2l0.6-6.1l2.1,0.2L151.4,200.9z"/>
				<path class="st1" d="M157.3,206L157.3,206c-0.5,0.5-1.2,0.7-1.9,0.6c-1.2-0.1-2-0.8-1.8-2c0.1-1.3,1.2-1.6,2.4-1.6
					c1.3,0,1.7-0.1,1.7-0.5c0-0.3-0.1-0.6-0.6-0.6s-0.8,0.2-0.9,0.6l-2.1-0.2c0.2-1.2,1.2-2.1,3.1-1.9c0.9,0.1,1.5,0.3,1.9,0.6
					c0.6,0.5,0.8,1.1,0.8,1.9l-0.3,3c-0.1,0.5,0,0.8,0.1,0.9l0,0.1l-2.2-0.2C157.3,206.6,157.3,206.4,157.3,206z M157.4,204.5
					l0.1-0.5c-0.2,0.1-0.5,0.2-0.9,0.2c-0.7,0.1-0.9,0.2-0.9,0.6c0,0.4,0.3,0.6,0.6,0.7C156.8,205.5,157.4,205.2,157.4,204.5z"/>
				<path class="st1" d="M160.5,200.9l0.8,0.1l0.2-2l2.2,0.2l-0.2,2l1.2,0.1l-0.1,1.4l-1.2-0.1l-0.2,2.5c-0.1,0.6,0.4,0.7,1.1,0.7
					l-0.2,1.7c-0.4,0-0.7,0.1-1.1,0c-1.5-0.1-2.2-0.6-2-2.1l0.3-3l-0.8-0.1L160.5,200.9z"/>
				<path class="st1" d="M165.2,201.4l2.2,0.2l-0.6,6.1l-2.3-0.2L165.2,201.4z M165.4,198.9l2.3,0.2l-0.2,1.7l-2.3-0.2L165.4,198.9z
					"/>
				<path class="st1" d="M167.7,204.7c0.2-1.8,1.6-3.1,3.7-2.9c2,0.2,3.2,1.7,3,3.6c-0.2,1.8-1.6,3.1-3.6,2.9
					C168.7,208.1,167.5,206.6,167.7,204.7z M172.1,205.1c0.1-1-0.2-1.7-0.9-1.8s-1.1,0.6-1.2,1.6c-0.1,1,0.2,1.7,0.9,1.8
					S171.9,206.2,172.1,205.1z"/>
				<path class="st1" d="M177.3,203.4L177.3,203.4c0.6-0.6,1.2-0.9,2.1-0.8c1.4,0.1,2,1.2,1.9,2.5l-0.4,3.9l-2.3-0.2l0.3-3.4
					c0.1-0.6-0.2-1.1-0.7-1.1c-0.6-0.1-1,0.4-1,1.1l-0.3,3.3l-2.3-0.2l0.6-6.1l2.1,0.2L177.3,203.4z"/>
			</g>
		</g>
	</g>
	<g>
		<path class="st13" d="M133.6,244.8L24.7,234c-0.9-0.1-1.5-0.8-1.4-1.7l2.6-26.1c0.1-0.9,0.8-1.5,1.7-1.4l108.9,10.8
			c0.9,0.1,1.5,0.8,1.4,1.7l-2.6,26.1C135.2,244.3,134.5,244.9,133.6,244.8z"/>
		<g>
			<g>
				<path class="st1" d="M40.3,220.7c0.3-2.5,2.2-4.3,4.7-4c0.9,0.1,1.7,0.4,2.3,0.9c0.8,0.7,1.2,1.7,1.2,2.8l-2.5-0.2
					c0-0.7-0.5-1.3-1.3-1.4c-1.2-0.1-1.8,0.8-2,2.2c-0.1,1.4,0.4,2.5,1.5,2.6c0.9,0.1,1.4-0.4,1.6-1.2l2.5,0.2
					c-0.2,0.9-0.7,1.7-1.3,2.2c-0.8,0.6-1.7,0.9-3,0.7C41.6,225.3,40,223.2,40.3,220.7z"/>
				<path class="st1" d="M49.5,217.2l2.3,0.2L51,226l-2.3-0.2L49.5,217.2z"/>
				<path class="st1" d="M51.8,223c0.2-1.8,1.6-3.1,3.7-2.9c2,0.2,3.2,1.7,3,3.6c-0.2,1.8-1.6,3.1-3.6,2.9
					C52.8,226.4,51.7,224.9,51.8,223z M56.2,223.4c0.1-1-0.2-1.7-0.9-1.8c-0.7-0.1-1.1,0.6-1.2,1.6c-0.1,1,0.2,1.7,0.9,1.8
					C55.7,225.1,56.1,224.5,56.2,223.4z"/>
				<path class="st1" d="M62.8,227.2l0.1-0.8l0,0c-0.5,0.6-1.2,0.9-2,0.8c-1.5-0.1-2.1-1.2-1.9-2.6l0.4-3.9l2.3,0.2l-0.3,3.4
					c-0.1,0.6,0.2,1,0.7,1c0.6,0.1,1-0.3,1-1l0.3-3.3l2.3,0.2l-0.6,6.1L62.8,227.2z"/>
				<path class="st1" d="M65.8,224.4c0.2-1.9,1.4-3.1,3-2.9c0.9,0.1,1.3,0.4,1.6,1l0,0l0.3-3.1l2.3,0.2l-0.8,8.5l-2.1-0.2l0.1-0.8
					l0,0c-0.5,0.6-1.1,0.9-1.9,0.9C66.6,227.7,65.6,226.5,65.8,224.4z M70.3,224.8c0.1-0.9-0.3-1.6-1-1.7c-0.7-0.1-1.2,0.5-1.2,1.5
					c-0.1,0.9,0.3,1.6,0.9,1.7S70.2,225.7,70.3,224.8z"/>
				<path class="st1" d="M74.7,225.6l2.5,0.3c0,0.7,0.5,1.1,1.3,1.1c0.5,0,1.1-0.1,1.2-0.6c0.1-0.5-0.5-0.7-1.5-1.1
					c-1.4-0.5-3.1-1.2-2.9-3c0.2-2,1.9-2.5,3.8-2.3c1.8,0.2,3.3,1.1,3.2,2.9l-2.5-0.2c0-0.5-0.3-0.8-1-0.9c-0.5-0.1-1,0.2-1,0.5
					c0,0.5,0.7,0.6,1.9,1.1c1.4,0.5,2.8,1.2,2.6,3c-0.2,1.9-1.9,2.7-3.9,2.5C76.1,228.7,74.5,227.6,74.7,225.6z"/>
				<path class="st1" d="M82.7,226c0.2-1.8,1.6-3.1,3.6-2.9c1,0.1,1.6,0.5,2.2,1c0.7,0.8,0.9,1.9,0.8,3.1l-4.3-0.4
					c0.1,0.7,0.4,1.2,1.1,1.2c0.4,0,0.7-0.1,0.9-0.4l2.2,0.2c-0.2,0.5-0.7,1-1.3,1.4c-0.6,0.3-1.2,0.4-2,0.3
					C83.7,229.4,82.5,227.9,82.7,226z M85,225.6l2.1,0.2c0-0.7-0.4-1.1-0.9-1.2C85.5,224.6,85.2,225,85,225.6z"/>
				<path class="st1" d="M89.5,226.8c0.2-1.8,1.7-3.1,3.7-2.9c1.7,0.2,2.8,1.3,2.8,2.7l-2.2-0.2c-0.1-0.6-0.3-0.9-0.8-0.9
					c-0.7-0.1-1.1,0.5-1.2,1.6c-0.1,1,0.2,1.7,0.9,1.7c0.5,0.1,0.9-0.3,1-1l2.2,0.2c-0.1,1.5-1.5,2.5-3.3,2.3
					C90.6,230.1,89.4,228.6,89.5,226.8z"/>
				<path class="st1" d="M100.2,230.9l0.1-0.8l0,0c-0.5,0.6-1.2,0.9-2,0.8c-1.5-0.1-2.1-1.2-1.9-2.6l0.4-3.9l2.3,0.2l-0.3,3.4
					c-0.1,0.6,0.2,1,0.7,1c0.6,0.1,1-0.3,1-1l0.3-3.3l2.3,0.2l-0.6,6.1L100.2,230.9z"/>
				<path class="st1" d="M105.8,226.2L105.8,226.2c0.6-0.7,1.2-0.9,2-0.9c0.2,0,0.3,0.1,0.4,0.1l-0.2,1.9l0,0
					c-1.3-0.4-2.1,0.2-2.3,1.5l-0.2,2.5l-2.3-0.2l0.6-6.1l2.1,0.2L105.8,226.2z"/>
				<path class="st1" d="M108.7,225.6l2.3,0.2l-0.6,6.1l-2.3-0.2L108.7,225.6z M108.9,223.1l2.3,0.2l-0.2,1.7l-2.3-0.2L108.9,223.1z
					"/>
				<path class="st1" d="M111.4,225.8l0.8,0.1l0.2-2l2.2,0.2l-0.2,2l1.2,0.1l-0.1,1.4l-1.2-0.1L114,230c-0.1,0.6,0.4,0.7,1.1,0.7
					l-0.2,1.7c-0.4,0-0.7,0.1-1.1,0c-1.5-0.1-2.2-0.6-2-2.1l0.3-3l-0.8-0.1L111.4,225.8z"/>
				<path class="st1" d="M116,232.7l0.8,0.1c0.5,0,0.7-0.1,0.7-0.4c0-0.2-0.1-0.5-0.2-0.9l-1.4-5.2l2.4,0.2l0.5,2.5
					c0.1,0.6,0.2,1.5,0.2,1.5l0,0c0,0,0.3-0.8,0.5-1.4l1-2.4l2.2,0.2l-2.7,5.9c-0.7,1.4-1.4,1.9-2.7,1.8l-1.6-0.2L116,232.7z"/>
			</g>
		</g>
	</g>
	<g>
		<linearGradient id="SVGID_10_" gradientUnits="userSpaceOnUse" x1="176.6794" y1="365.6685" x2="64.2461" y2="365.6685">
			<stop  offset="0" style="stop-color:#222C33"/>
			<stop  offset="0.4473" style="stop-color:#273036"/>
			<stop  offset="0.9591" style="stop-color:#353B3F"/>
			<stop  offset="1" style="stop-color:#363C40"/>
		</linearGradient>
		<path class="st15" d="M174.9,382.1H66c-1,0-1.8-0.8-1.8-1.8V351c0-1,0.8-1.8,1.8-1.8h108.9c1,0,1.8,0.8,1.8,1.8v29.3
			C176.7,381.3,175.9,382.1,174.9,382.1z"/>
		<g>
			<g>
				<path class="st1" d="M79.4,361.1h6.7v2h-4.2v1.2h3.5v1.9h-3.5v1.3h4.3v2.1h-6.8V361.1z"/>
				<path class="st1" d="M87,361.1H91c2.5,0,4.2,1.6,4.2,4.3c0,2.7-1.6,4.3-4.3,4.3H87V361.1z M90.7,367.6c1.1,0,2-0.7,2-2.2
					c0-1.4-0.8-2.2-2-2.2h-1.1v4.4H90.7z"/>
				<path class="st1" d="M102,368.8L102,368.8c-0.6,0.8-1.4,1.1-2.5,1.1c-1.1,0-2.1-0.4-2.8-1.1c-0.8-0.8-1.2-2-1.2-3.3
					c0-2.5,1.6-4.5,4.2-4.5c2.2,0,3.6,1.2,3.9,3.1h-2.4c-0.1-0.6-0.6-1-1.4-1c-1.2,0-1.8,1-1.8,2.4s0.7,2.4,1.9,2.4
					c0.9,0,1.4-0.5,1.5-1.1h-1.1V365h3.5v4.6h-1.7L102,368.8z"/>
				<path class="st1" d="M104.7,361.1h6.7v2h-4.2v1.2h3.5v1.9h-3.5v1.3h4.3v2.1h-6.8V361.1z"/>
				<path class="st1" d="M113.7,366.9h2.6c0.1,0.7,0.6,1,1.4,1c0.5,0,1.1-0.2,1.1-0.7s-0.6-0.6-1.6-0.9c-1.4-0.4-3.2-0.8-3.2-2.7
					c0-2,1.6-2.7,3.5-2.7c1.8,0,3.4,0.7,3.4,2.6h-2.5c-0.1-0.5-0.4-0.8-1.1-0.8c-0.5,0-0.9,0.3-0.9,0.6c0,0.5,0.7,0.6,2,0.9
					c1.4,0.3,2.9,0.9,2.9,2.7c0,1.9-1.7,2.9-3.7,2.9C115.4,369.9,113.7,368.9,113.7,366.9z"/>
				<path class="st1" d="M122,361.1h3.9c2.5,0,4.2,1.6,4.2,4.3c0,2.7-1.6,4.3-4.3,4.3H122V361.1z M125.6,367.6c1.1,0,2-0.7,2-2.2
					c0-1.4-0.8-2.2-2-2.2h-1.1v4.4H125.6z"/>
				<path class="st1" d="M130.6,365.7h3.3v2h-3.3V365.7z"/>
				<path class="st1" d="M133.6,361.1h2.5l0.6,2.9c0.2,0.9,0.4,2.4,0.4,2.4h0c0,0,0.2-1.3,0.4-2.3l0.7-3.1h2.3l0.7,3
					c0.2,1,0.4,2.3,0.4,2.3h0c0,0,0.2-1.4,0.4-2.4l0.6-2.9h2.6l-2.2,8.6h-2.5l-0.8-3.6c-0.2-0.7-0.3-1.7-0.3-1.7h0
					c0,0-0.1,0.9-0.3,1.7l-0.7,3.6h-2.6L133.6,361.1z"/>
				<path class="st1" d="M147.6,361.1h2.5l3.2,8.6h-2.7l-0.4-1.3h-2.9l-0.4,1.3h-2.5L147.6,361.1z M147.9,366.7h1.8l-0.5-1.7
					c-0.1-0.4-0.3-1.1-0.3-1.1h0c0,0-0.2,0.7-0.3,1.1L147.9,366.7z"/>
				<path class="st1" d="M153.8,361.1h2.5l2.8,4.8h0v-4.8h2.4v8.6h-2.6l-2.7-4.8h0v4.8h-2.4V361.1z"/>
			</g>
		</g>
	</g>
	<g>
		
			<linearGradient id="SVGID_11_" gradientUnits="userSpaceOnUse" x1="181.7062" y1="99.6813" x2="64.5506" y2="99.6813" gradientTransform="matrix(0.9914 -0.1308 0.1308 0.9914 2.8274 21.3728)">
			<stop  offset="0" style="stop-color:#222C33"/>
			<stop  offset="0.4473" style="stop-color:#273036"/>
			<stop  offset="0.9591" style="stop-color:#353B3F"/>
			<stop  offset="1" style="stop-color:#363C40"/>
		</linearGradient>
		<path class="st16" d="M196.1,109.8L83.2,124.7c-0.9,0.1-1.7-0.5-1.9-1.4l-3-23c-0.1-0.9,0.5-1.7,1.4-1.9l112.9-14.9
			c0.9-0.1,1.7,0.5,1.9,1.4l3,23C197.7,108.8,197,109.7,196.1,109.8z"/>
		<g>
			<g>
				<path class="st1" d="M92.8,105.2l4.4-0.6c0.8-0.1,1.5,0,2,0.3c0.6,0.3,0.9,0.9,1,1.6c0.1,0.8-0.2,1.4-0.8,1.8l0,0
					c1,0.2,1.6,0.9,1.7,1.8c0.1,0.9-0.2,1.7-0.7,2.2c-0.5,0.4-1.1,0.7-2,0.8l-4.5,0.6L92.8,105.2z M97.3,108
					c0.5-0.1,0.8-0.3,0.7-0.8c-0.1-0.4-0.4-0.7-0.9-0.6l-1.5,0.2l0.2,1.4L97.3,108z M97.9,111.2c0.5-0.1,0.9-0.4,0.8-0.9
					c-0.1-0.5-0.5-0.8-1-0.7l-1.8,0.2l0.2,1.6L97.9,111.2z"/>
				<path class="st1" d="M103.4,107.2L103.4,107.2c0.4-0.8,1-1.2,1.7-1.3c0.2,0,0.3,0,0.4,0l0.3,1.9l0,0c-1.3-0.1-2,0.6-1.9,2
					l0.3,2.5l-2.2,0.3l-0.8-6l2.1-0.3L103.4,107.2z"/>
				<path class="st1" d="M110.3,110.8L110.3,110.8c-0.4,0.6-1,1-1.7,1.1c-1.2,0.2-2.1-0.4-2.3-1.5c-0.2-1.3,0.8-1.9,1.9-2.2
					c1.3-0.3,1.6-0.5,1.5-0.9c0-0.3-0.2-0.6-0.7-0.5s-0.7,0.4-0.7,0.8l-2.1,0.3c-0.1-1.2,0.7-2.3,2.6-2.6c0.9-0.1,1.5-0.1,2,0.1
					c0.7,0.3,1.1,0.9,1.2,1.7l0.4,3c0.1,0.5,0.1,0.8,0.3,0.9l0,0.1l-2.2,0.3C110.5,111.3,110.4,111.2,110.3,110.8z M110.1,109.3
					l-0.1-0.5c-0.2,0.1-0.5,0.3-0.8,0.4c-0.6,0.2-0.8,0.4-0.8,0.8c0.1,0.4,0.4,0.5,0.8,0.5C109.7,110.4,110.2,110,110.1,109.3z"/>
				<path class="st1" d="M114.8,105.6L114.8,105.6c0.4-0.7,1-1.2,1.8-1.3c1.4-0.2,2.2,0.7,2.4,2l0.5,3.9l-2.2,0.3l-0.4-3.4
					c-0.1-0.6-0.4-1-1-0.9c-0.6,0.1-0.8,0.6-0.8,1.3l0.4,3.3l-2.2,0.3l-0.8-6l2.1-0.3L114.8,105.6z"/>
				<path class="st1" d="M119.8,107.2c-0.2-1.8,0.9-3.4,2.9-3.7c1.7-0.2,3,0.6,3.3,2l-2.2,0.3c-0.2-0.5-0.5-0.8-1-0.7
					c-0.7,0.1-0.9,0.8-0.8,1.8c0.1,1,0.6,1.6,1.3,1.5c0.5-0.1,0.8-0.5,0.7-1.2l2.2-0.3c0.2,1.5-0.9,2.8-2.7,3
					C121.5,110.2,120,109,119.8,107.2z"/>
				<path class="st1" d="M128.6,103.7L128.6,103.7c0.4-0.6,0.9-1,1.8-1.1c1.4-0.2,2.2,0.7,2.4,2l0.5,3.9l-2.2,0.3l-0.4-3.4
					c-0.1-0.6-0.4-1-1-0.9c-0.6,0.1-0.8,0.6-0.8,1.3l0.4,3.3l-2.2,0.3l-1.1-8.5l2.2-0.3L128.6,103.7z"/>
				<path class="st1" d="M135.1,105.5l2.5-0.3c0.2,0.7,0.7,0.9,1.6,0.8c0.5-0.1,1.1-0.3,1-0.8s-0.7-0.6-1.7-0.7
					c-1.5-0.2-3.3-0.4-3.5-2.2c-0.3-1.9,1.2-2.9,3.1-3.1c1.8-0.2,3.5,0.3,3.7,2.1l-2.5,0.3c-0.1-0.5-0.5-0.7-1.2-0.6
					c-0.5,0.1-0.9,0.4-0.8,0.7c0.1,0.5,0.8,0.5,2.1,0.6c1.5,0.2,3,0.5,3.2,2.3c0.2,1.8-1.3,3.1-3.3,3.3
					C137.2,108.2,135.4,107.4,135.1,105.5z"/>
				<path class="st1" d="M143,104.1c-0.2-1.8,0.9-3.4,2.8-3.6c0.9-0.1,1.7,0.1,2.3,0.5c0.8,0.6,1.3,1.6,1.4,2.8l-4.3,0.6
					c0.2,0.7,0.7,1.1,1.3,1c0.4-0.1,0.7-0.2,0.8-0.6l2.2-0.3c-0.1,0.6-0.4,1.2-1,1.6c-0.5,0.4-1.1,0.7-1.9,0.8
					C144.8,107.1,143.2,106,143,104.1z M145.1,103.2l2.1-0.3c-0.2-0.7-0.6-1-1.2-0.9C145.4,102.1,145.1,102.5,145.1,103.2z"/>
				<path class="st1" d="M149.8,103.2c-0.2-1.8,0.9-3.4,2.9-3.7c1.7-0.2,3,0.6,3.3,2l-2.2,0.3c-0.2-0.5-0.5-0.8-1-0.7
					c-0.7,0.1-0.9,0.8-0.8,1.8c0.1,1,0.6,1.6,1.3,1.5c0.5-0.1,0.8-0.5,0.7-1.2l2.2-0.3c0.2,1.5-0.9,2.8-2.7,3
					C151.6,106.3,150.1,105.1,149.8,103.2z"/>
				<path class="st1" d="M161.1,104.8L161,104l0,0c-0.4,0.7-0.9,1.1-1.8,1.2c-1.4,0.2-2.3-0.7-2.5-2.1l-0.5-3.9l2.2-0.3l0.4,3.4
					c0.1,0.6,0.4,0.9,0.9,0.9c0.6-0.1,0.9-0.5,0.8-1.2l-0.4-3.3l2.2-0.3l0.8,6L161.1,104.8z"/>
				<path class="st1" d="M165.5,99L165.5,99c0.4-0.8,1-1.2,1.7-1.3c0.2,0,0.3,0,0.4,0l0.3,1.9l0,0c-1.3-0.1-2,0.6-1.9,2l0.3,2.5
					l-2.2,0.3l-0.8-6l2.1-0.3L165.5,99z"/>
				<path class="st1" d="M167.9,95.3l2.2-0.3l0.2,1.7l-2.2,0.3L167.9,95.3z M168.2,97.7l2.2-0.3l0.8,6l-2.2,0.3L168.2,97.7z"/>
				<path class="st1" d="M170.9,97.4l0.8-0.1l-0.3-2l2.2-0.3l0.3,2l1.2-0.2l0.2,1.4l-1.2,0.2l0.3,2.5c0.1,0.6,0.5,0.6,1.2,0.4
					l0.2,1.6c-0.3,0.1-0.7,0.2-1.1,0.3c-1.5,0.2-2.3-0.1-2.5-1.6l-0.4-3l-0.8,0.1L170.9,97.4z"/>
				<path class="st1" d="M177,103l0.7-0.1c0.5-0.1,0.7-0.2,0.6-0.5c0-0.2-0.2-0.5-0.4-0.8l-2.6-4.8l2.4-0.3l1.1,2.3
					c0.3,0.6,0.5,1.4,0.5,1.4l0,0c0,0,0.1-0.9,0.2-1.5l0.4-2.5l2.2-0.3l-1.3,6.3c-0.3,1.6-1,2.2-2.2,2.3l-1.6,0.2L177,103z"/>
			</g>
		</g>
	</g>
	<g>
		<path class="st17" d="M154,348.9L7.7,348.3c-1.1,0-2-0.9-2-2l0.1-26.9c0-1.1,0.9-2,2-2l146.3,0.6c1.1,0,2,0.9,2,2l-0.1,26.9
			C156,348,155.1,348.9,154,348.9z"/>
		<g>
			<g>
				<path class="st18" d="M29.8,328.7l2.5,0l0.6,2.9c0.2,0.9,0.4,2.4,0.4,2.4h0c0,0,0.2-1.3,0.5-2.3l0.7-3l2.3,0l0.6,3
					c0.2,1,0.4,2.3,0.4,2.3l0,0c0,0,0.2-1.4,0.4-2.4l0.6-2.9l2.6,0l-2.3,8.5l-2.5,0l-0.8-3.6c-0.2-0.7-0.3-1.7-0.3-1.7h0
					c0,0-0.1,0.9-0.3,1.7l-0.8,3.6l-2.6,0L29.8,328.7z"/>
				<path class="st18" d="M43.8,328.7l2.5,0l3.1,8.6l-2.7,0l-0.4-1.3l-2.9,0l-0.4,1.3l-2.5,0L43.8,328.7z M44.1,334.3l1.8,0
					l-0.5-1.7c-0.1-0.4-0.3-1.1-0.3-1.1h0c0,0-0.2,0.7-0.3,1.1L44.1,334.3z"/>
				<path class="st18" d="M50,328.8l2.5,0l2.8,4.8h0l0-4.8l2.4,0l0,8.6l-2.6,0l-2.7-4.9h0l0,4.8l-2.4,0L50,328.8z"/>
				<path class="st18" d="M60.2,333.1c0-2.6,1.7-4.5,4.3-4.4c2.7,0,4.3,1.9,4.3,4.5c0,2.6-1.7,4.4-4.4,4.4
					C61.8,337.6,60.2,335.7,60.2,333.1z M66.3,333.1c0-1.4-0.6-2.5-1.8-2.5c-1.2,0-1.8,1.1-1.8,2.5c0,1.4,0.6,2.5,1.8,2.5
					C65.7,335.6,66.3,334.5,66.3,333.1z"/>
				<path class="st18" d="M69.5,331.3l2.2,0l0,0.7h0c0.4-0.6,1.1-0.9,1.9-0.9c1.6,0,2.6,1.5,2.6,3.2c0,2-1.1,3.3-2.7,3.3
					c-0.7,0-1.3-0.3-1.7-0.8h0l0,2.6l-2.3,0L69.5,331.3z M73.8,334.4c0-0.9-0.4-1.5-1-1.5c-0.7,0-1.2,0.6-1.2,1.5
					c0,0.9,0.4,1.5,1.1,1.5C73.4,335.9,73.8,335.4,73.8,334.4z"/>
				<path class="st18" d="M76.3,331.3l0.8,0l0-2l2.2,0l0,2l1.2,0l0,1.4l-1.2,0l0,2.5c0,0.6,0.4,0.6,1.1,0.6l0,1.7
					c-0.3,0.1-0.7,0.1-1.1,0.1c-1.5,0-2.2-0.4-2.2-1.9l0-3l-0.8,0L76.3,331.3z"/>
				<path class="st18" d="M81,331.3l2.3,0l0,6.1l-2.3,0L81,331.3z M81,328.9l2.3,0l0,1.7l-2.3,0L81,328.9z"/>
				<path class="st18" d="M84.1,331.3l2.2,0l0,0.9h0c0.4-0.7,1-1.1,1.9-1.1c0.8,0,1.4,0.4,1.7,1.1h0c0.5-0.8,1.2-1.1,2-1.1
					c1.5,0,2.1,1.1,2.1,2.5l0,3.8l-2.3,0l0-3.4c0-0.6-0.2-1-0.8-1c-0.6,0-0.9,0.5-0.9,1.2l0,3.3l-2.3,0l0-3.4c0-0.6-0.2-1-0.8-1
					c-0.6,0-0.9,0.5-0.9,1.2l0,3.3l-2.3,0L84.1,331.3z"/>
				<path class="st18" d="M94.9,331.4l2.3,0l0,6.1l-2.3,0L94.9,331.4z M94.9,328.9l2.3,0l0,1.7l-2.3,0L94.9,328.9z"/>
				<path class="st18" d="M97.8,335.9l2.2-2.2c0.3-0.3,0.6-0.6,0.6-0.6v0c0,0-0.5,0-0.9,0l-1.7,0l0-1.7l5.4,0l0,1.6l-2,2.1
					c-0.4,0.4-0.8,0.7-0.8,0.7v0c0,0,0.4,0,1,0l2,0l0,1.7l-5.8,0L97.8,335.9z"/>
				<path class="st18" d="M107.8,336.9L107.8,336.9c-0.4,0.6-1.1,0.8-1.9,0.8c-1.2,0-2-0.6-2-1.8c0-1.4,1-1.7,2.2-1.9
					c1.3-0.1,1.6-0.3,1.6-0.7c0-0.3-0.2-0.6-0.6-0.6s-0.7,0.3-0.8,0.7l-2.1,0c0.1-1.2,1-2.2,2.9-2.2c0.9,0,1.5,0.1,2,0.4
					c0.6,0.4,0.9,1,0.9,1.8l0,3.1c0,0.5,0,0.8,0.2,0.9v0.1l-2.2,0C107.9,337.4,107.9,337.2,107.8,336.9z M107.9,335.3l0-0.5
					c-0.2,0.1-0.5,0.2-0.9,0.3c-0.7,0.1-0.9,0.3-0.9,0.7c0,0.4,0.3,0.6,0.7,0.6C107.3,336.4,107.8,336.1,107.9,335.3z"/>
				<path class="st18" d="M110.5,331.5l0.8,0l0-2l2.2,0l0,2l1.2,0l0,1.4l-1.2,0l0,2.5c0,0.6,0.4,0.6,1.1,0.6l0,1.7
					c-0.3,0.1-0.7,0.1-1.1,0.1c-1.5,0-2.2-0.4-2.2-1.9l0-3l-0.8,0L110.5,331.5z"/>
				<path class="st18" d="M115.3,331.5l2.3,0l0,6.1l-2.3,0L115.3,331.5z M115.3,329l2.3,0l0,1.7l-2.3,0L115.3,329z"/>
				<path class="st18" d="M118.1,334.6c0-1.9,1.3-3.2,3.4-3.2c2,0,3.3,1.4,3.3,3.3s-1.3,3.2-3.3,3.2
					C119.4,337.8,118.1,336.4,118.1,334.6z M122.5,334.6c0-1-0.4-1.7-1-1.7c-0.7,0-1,0.7-1,1.7c0,1,0.3,1.7,1,1.7
					C122.1,336.3,122.5,335.6,122.5,334.6z"/>
				<path class="st18" d="M127.5,332.4L127.5,332.4c0.5-0.7,1.2-1,2-1c1.4,0,2.1,1,2.1,2.4l0,3.9l-2.3,0l0-3.4
					c0-0.6-0.3-1.1-0.8-1.1c-0.6,0-0.9,0.5-0.9,1.2l0,3.3l-2.3,0l0-6.1l2.2,0L127.5,332.4z"/>
			</g>
		</g>
	</g>
</g>
<g id="Layer_4">
	<polyline class="st19" points="362.6,276 362.6,302.5 393.5,252.5 362.6,202.5 362.6,229 	"/>
</g>
<g id="Layer_6">
	<line class="st20" x1="477.9" y1="140.9" x2="477.9" y2="91.4"/>
	<g>
		<g>
			<path class="st10" d="M459.3,79.1h1v7.9h-1V79.1z"/>
			<path class="st10" d="M462.5,82L462.5,82c0.4-0.5,1-0.9,1.8-0.9c1.2,0,1.9,0.6,1.9,1.8v4h-0.9V83c0-0.7-0.5-1.2-1.3-1.2
				c-0.9,0-1.6,0.6-1.6,1.6v3.5h-0.9v-5.7h0.9V82z"/>
			<path class="st10" d="M467,81.2h0.8v-1.8h0.9v1.8h1.1V82h-1.1v3.7c0,0.4,0.2,0.5,0.6,0.5c0.2,0,0.4,0,0.5-0.1h0v0.8
				c-0.2,0-0.5,0.1-0.7,0.1c-0.7,0-1.3-0.3-1.3-1.1V82H467V81.2z"/>
			<path class="st10" d="M470.3,84.1c0-1.7,1.1-3,2.7-3c1.7,0,2.6,1.3,2.6,3.2h-4.4c0.1,1.2,0.7,2,1.8,2c0.8,0,1.4-0.4,1.6-1.2h0.9
				c-0.3,1.2-1.2,1.9-2.4,1.9C471.3,87.1,470.3,85.7,470.3,84.1z M471.3,83.6h3.4c-0.1-1.1-0.6-1.8-1.7-1.8
				C472,81.8,471.4,82.6,471.3,83.6z"/>
			<path class="st10" d="M477.4,82.2L477.4,82.2c0.4-0.6,1-1,1.7-1c0.2,0,0.3,0,0.4,0.1v0.9h0c-0.1,0-0.2-0.1-0.4-0.1
				c-0.9,0-1.7,0.7-1.7,1.7v3.2h-0.9v-5.7h0.9V82.2z"/>
			<path class="st10" d="M481.2,82L481.2,82c0.4-0.5,1-0.9,1.8-0.9c1.2,0,1.9,0.6,1.9,1.8v4H484V83c0-0.7-0.5-1.2-1.3-1.2
				c-0.9,0-1.6,0.6-1.6,1.6v3.5h-0.9v-5.7h0.9V82z"/>
			<path class="st10" d="M485.8,84.1c0-1.7,1.1-3,2.7-3c1.7,0,2.6,1.3,2.6,3.2h-4.4c0.1,1.2,0.7,2,1.8,2c0.8,0,1.4-0.4,1.6-1.2h0.9
				c-0.3,1.2-1.2,1.9-2.4,1.9C486.8,87.1,485.8,85.7,485.8,84.1z M486.7,83.6h3.4c-0.1-1.1-0.6-1.8-1.7-1.8
				C487.4,81.8,486.8,82.6,486.7,83.6z"/>
			<path class="st10" d="M491.5,81.2h0.8v-1.8h0.9v1.8h1.1V82h-1.1v3.7c0,0.4,0.2,0.5,0.6,0.5c0.2,0,0.4,0,0.5-0.1h0v0.8
				c-0.2,0-0.5,0.1-0.7,0.1c-0.7,0-1.3-0.3-1.3-1.1V82h-0.8V81.2z"/>
		</g>
	</g>
	<g>
		<g>
			<g>
				<path class="st21" d="M424.5,61.2c-4.3,0-7.9-3.8-7.9-8.2s3.6-8.2,7.9-8.2c0.2,0,0.4,0,0.6,0c1.8-4,5.8-6.5,10.2-6.5
					c4.6,0,8.8,2.9,10.4,7.2c3.9,0.3,7.1,3.8,7.1,7.9c0,4.3-3.5,7.9-7.6,7.9H424.5z"/>
				<path class="st1" d="M435.2,38.7c4.7,0,8.7,3,10.1,7.2c3.9,0.1,7,3.6,7,7.4c0,3.9-3.2,7.5-7.1,7.5h-20.7c-4.1,0-7.5-3.6-7.5-7.8
					c0-4.1,3.3-7.8,7.5-7.8c0.3,0,0.6,0,0.8,0C427,41.4,430.8,38.7,435.2,38.7 M435.2,37.8c-4.5,0-8.5,2.5-10.5,6.5
					c-0.1,0-0.2,0-0.3,0c-4.5,0-8.4,4-8.4,8.7c0,4.7,3.8,8.7,8.4,8.7h20.7c4.4,0,8-3.8,8-8.3c0-4.2-3.3-7.9-7.2-8.3
					C444.2,40.7,440,37.8,435.2,37.8L435.2,37.8z"/>
			</g>
		</g>
		<g>
			<path class="st10" d="M435.5,50.8c-1.5,0-2.9,0.9-3.6,2.1c-0.7-1.3-2-2.1-3.6-2.1c-0.9,0-1.7,0.3-2.4,0.8v-3.4h0
				c0-0.4-0.4-0.8-0.8-0.8c-0.4,0-0.8,0.4-0.8,0.8h0v6.7h0c0,2.2,1.8,4,4,4c1.5,0,2.9-0.9,3.6-2.1c0.7,1.3,2,2.1,3.6,2.1
				c2.2,0,4-1.8,4-4C439.5,52.6,437.7,50.8,435.5,50.8z M428.4,57.2c-1.3,0-2.4-1.1-2.4-2.4c0-1.3,1.1-2.4,2.4-2.4s2.4,1.1,2.4,2.4
				C430.8,56.1,429.7,57.2,428.4,57.2z M435.5,57.2c-1.3,0-2.4-1.1-2.4-2.4c0-1.3,1.1-2.4,2.4-2.4c1.3,0,2.4,1.1,2.4,2.4
				C437.9,56.1,436.8,57.2,435.5,57.2z"/>
			<path class="st10" d="M444.9,57.6l-2.1-2.8l2.1-2.8l0,0c0.3-0.4,0.2-0.8-0.2-1.1c-0.4-0.3-0.8-0.2-1.1,0.1l0,0l-1.8,2.4l-1.8-2.4
				l0,0c-0.3-0.3-0.8-0.4-1.1-0.1c-0.4,0.3-0.4,0.8-0.2,1.1l0,0l2.1,2.8l-2.1,2.8l0,0c-0.3,0.4-0.2,0.8,0.2,1.1
				c0.4,0.3,0.8,0.2,1.1-0.1l0,0l1.8-2.4l1.8,2.4l0,0c0.3,0.3,0.8,0.4,1.1,0.1C445.1,58.4,445.1,57.9,444.9,57.6L444.9,57.6z"/>
		</g>
	</g>
	<g>
		<path class="st22" d="M481.5,13c1.4-1.4,3.3-2.3,5.5-2.3c2.8,0,5.3,1.6,6.7,3.9c1.1-0.5,2.4-0.8,3.8-0.8c5.1,0,9.3,4.2,9.3,9.4
			c0,5.2-4.2,9.4-9.3,9.4c-0.6,0-1.2-0.1-1.8-0.2c-1.2,2.1-3.4,3.5-5.9,3.5c-1.1,0-2.1-0.2-3-0.7c-1.2,2.8-3.9,4.7-7.1,4.7
			c-3.3,0-6.2-2.1-7.3-5.1c-0.5,0.1-1,0.2-1.5,0.2c-4,0-7.2-3.3-7.2-7.3c0-2.7,1.4-5,3.6-6.3c-0.4-1-0.7-2.1-0.7-3.3
			c0-4.6,3.8-8.4,8.4-8.4C477.6,9.7,480,11,481.5,13"/>
		<g>
			<path class="st10" d="M469.8,25.4C469.8,25.5,469.8,25.5,469.8,25.4c0.1,0.2,0.2,0.2,0.3,0.2c0.4,0.2,0.9,0.3,1.3,0.3
				c0.9,0,1.4-0.5,1.4-1.2v0c0-0.7-0.6-1-1.2-1.1l-0.1,0c-0.4-0.1-0.8-0.3-0.8-0.6v0c0-0.2,0.2-0.4,0.6-0.4c0.4,0,0.8,0.1,1.1,0.3
				c0,0,0.1,0.1,0.1,0c0,0,0.2-0.4,0.2-0.5c0,0,0-0.1,0-0.1c-0.3-0.2-0.8-0.3-1.3-0.3l-0.1,0c-0.8,0-1.4,0.5-1.4,1.2v0
				c0,0.7,0.6,1,1.2,1.1l0.1,0c0.4,0.1,0.8,0.2,0.8,0.5v0c0,0.3-0.2,0.5-0.6,0.5c-0.1,0-0.6,0-1.1-0.3c-0.1,0-0.1-0.1-0.1-0.1
				c0,0-0.1,0-0.1,0L469.8,25.4z"/>
			<path class="st10" d="M482.8,25.4C482.8,25.5,482.8,25.5,482.8,25.4c0.1,0.2,0.2,0.2,0.3,0.2c0.4,0.2,0.9,0.3,1.3,0.3
				c0.9,0,1.4-0.5,1.4-1.2v0c0-0.7-0.6-1-1.2-1.1l-0.1,0c-0.4-0.1-0.8-0.3-0.8-0.6v0c0-0.2,0.2-0.4,0.6-0.4c0.4,0,0.8,0.1,1.1,0.3
				c0,0,0.1,0.1,0.1,0c0,0,0.2-0.4,0.2-0.5c0,0,0-0.1,0-0.1c-0.3-0.2-0.8-0.3-1.3-0.3l-0.1,0c-0.8,0-1.4,0.5-1.4,1.2v0
				c0,0.7,0.6,1,1.2,1.1l0.1,0c0.4,0.1,0.8,0.2,0.8,0.5v0c0,0.3-0.2,0.5-0.6,0.5c-0.1,0-0.6,0-1.1-0.3c-0.1,0-0.1-0.1-0.1-0.1
				c0,0-0.1,0-0.1,0L482.8,25.4z"/>
			<path class="st10" d="M492.4,23.1c-0.1-0.2-0.2-0.5-0.3-0.6c-0.2-0.2-0.3-0.3-0.6-0.4c-0.2-0.1-0.5-0.2-0.8-0.2
				c-0.3,0-0.6,0.1-0.8,0.2c-0.2,0.1-0.4,0.3-0.6,0.4c-0.2,0.2-0.3,0.4-0.3,0.6c-0.1,0.2-0.1,0.5-0.1,0.8c0,0.3,0,0.6,0.1,0.8
				c0.1,0.2,0.2,0.5,0.3,0.6c0.2,0.2,0.3,0.3,0.6,0.4c0.2,0.1,0.5,0.2,0.8,0.2c0.3,0,0.6-0.1,0.8-0.2c0.2-0.1,0.4-0.2,0.6-0.4
				c0.2-0.2,0.3-0.4,0.3-0.6c0.1-0.2,0.1-0.5,0.1-0.8C492.5,23.6,492.4,23.4,492.4,23.1 M491.6,23.9c0,0.4-0.1,0.8-0.2,1
				c-0.2,0.2-0.4,0.4-0.7,0.4c-0.3,0-0.6-0.1-0.7-0.4c-0.2-0.2-0.2-0.6-0.2-1c0-0.4,0.1-0.8,0.2-1c0.2-0.2,0.4-0.3,0.7-0.3
				c0.3,0,0.6,0.1,0.7,0.3C491.6,23.1,491.6,23.5,491.6,23.9"/>
			<path class="st13" d="M498.4,25.1C498.4,25.1,498.3,25.1,498.4,25.1c-0.2,0-0.3,0-0.4,0.1c-0.1,0-0.3,0-0.4,0
				c-0.4,0-0.6-0.1-0.8-0.3c-0.2-0.2-0.3-0.6-0.3-1c0-0.4,0.1-0.7,0.3-1c0.2-0.2,0.5-0.4,0.8-0.4c0.3,0,0.5,0,0.8,0.1
				c0,0,0.1,0,0.1-0.1c0.1-0.2,0.1-0.3,0.2-0.5c0-0.1,0-0.1,0-0.1c-0.1,0-0.3-0.1-0.5-0.1c-0.2,0-0.3,0-0.6,0
				c-0.3,0-0.6,0.1-0.8,0.2c-0.2,0.1-0.4,0.2-0.6,0.4c-0.2,0.2-0.3,0.4-0.4,0.6c-0.1,0.2-0.1,0.5-0.1,0.8c0,0.6,0.2,1.1,0.5,1.5
				c0.3,0.4,0.8,0.5,1.5,0.5c0.4,0,0.8-0.1,1-0.2c0,0,0.1,0,0-0.1L498.4,25.1z"/>
			<path class="st13" d="M502.2,23c-0.1-0.2-0.2-0.5-0.3-0.6c-0.2-0.2-0.3-0.3-0.5-0.4c-0.2-0.1-0.4-0.1-0.7-0.1
				c-0.3,0-0.6,0.1-0.8,0.2c-0.2,0.1-0.4,0.3-0.6,0.4c-0.2,0.2-0.3,0.4-0.3,0.6c-0.1,0.2-0.1,0.5-0.1,0.8c0,0.3,0,0.6,0.1,0.8
				c0.1,0.2,0.2,0.5,0.4,0.6c0.2,0.2,0.4,0.3,0.6,0.4c0.3,0.1,0.6,0.1,0.9,0.1c0.7,0,1.1-0.2,1.3-0.2c0,0,0.1,0,0-0.1l-0.2-0.5
				c0-0.1-0.1,0-0.1,0c-0.2,0.1-0.4,0.2-1,0.2c-0.4,0-0.7-0.1-0.9-0.3c-0.2-0.2-0.3-0.5-0.3-0.8l2.5,0c0,0,0.1,0,0.1-0.1
				C502.3,24,502.4,23.5,502.2,23 M499.7,23.5c0-0.2,0.1-0.4,0.2-0.6c0.2-0.2,0.4-0.4,0.7-0.4s0.5,0.1,0.7,0.4
				c0.1,0.2,0.1,0.4,0.2,0.6L499.7,23.5z"/>
			<path class="st13" d="M482.2,23c-0.1-0.2-0.2-0.5-0.3-0.6c-0.2-0.2-0.3-0.3-0.5-0.4c-0.2-0.1-0.4-0.1-0.7-0.1
				c-0.3,0-0.6,0.1-0.8,0.2c-0.2,0.1-0.4,0.3-0.6,0.4c-0.2,0.2-0.3,0.4-0.3,0.6c-0.1,0.2-0.1,0.5-0.1,0.8c0,0.3,0,0.6,0.1,0.8
				c0.1,0.2,0.2,0.5,0.4,0.6c0.2,0.2,0.4,0.3,0.6,0.4c0.3,0.1,0.6,0.1,0.9,0.1c0.7,0,1.1-0.2,1.3-0.2c0,0,0.1,0,0-0.1l-0.2-0.5
				c0-0.1-0.1,0-0.1,0c-0.2,0.1-0.4,0.2-1,0.2c-0.4,0-0.7-0.1-0.9-0.3c-0.2-0.2-0.3-0.5-0.3-0.8l2.5,0c0,0,0.1,0,0.1-0.1
				C482.3,24,482.4,23.5,482.2,23 M479.7,23.5c0-0.2,0.1-0.4,0.2-0.6c0.2-0.2,0.4-0.4,0.7-0.4c0.3,0,0.5,0.1,0.7,0.4
				c0.1,0.2,0.1,0.4,0.2,0.6L479.7,23.5z"/>
			<path class="st10" d="M475.3,23.4c-0.1,0-0.2,0-0.4,0c-0.2,0-0.4,0-0.6,0.1c-0.2,0.1-0.4,0.1-0.5,0.2c-0.2,0.1-0.3,0.2-0.4,0.4
				c-0.1,0.2-0.1,0.4-0.1,0.6c0,0.2,0,0.4,0.1,0.6c0.1,0.2,0.2,0.3,0.3,0.4c0.1,0.1,0.3,0.2,0.5,0.2c0.2,0,0.4,0.1,0.7,0.1
				c0.3,0,0.5,0,0.8-0.1c0.2,0,0.5-0.1,0.6-0.1c0.1,0,0.2,0,0.2,0c0.1,0,0.1-0.1,0.1-0.1l0-2.3c0-0.5-0.1-0.9-0.4-1.1
				c-0.3-0.2-0.6-0.3-1.1-0.3c-0.2,0-0.5,0-0.7,0.1c0,0-0.5,0.1-0.8,0.3c0,0,0,0,0,0.1l0.2,0.5c0,0.1,0.1,0,0.1,0s0,0,0,0
				c0.5-0.3,1.1-0.3,1.1-0.3c0.3,0,0.5,0.1,0.6,0.2c0.1,0.1,0.2,0.3,0.2,0.6v0.1C475.5,23.4,475.3,23.4,475.3,23.4 M474.3,25.1
				c-0.1-0.1-0.1-0.1-0.1-0.1c-0.1-0.1-0.1-0.2-0.1-0.3c0-0.2,0.1-0.4,0.2-0.5c0,0,0.2-0.2,0.7-0.2c0.4,0,0.7,0.1,0.7,0.1v1.1
				c0,0-0.3,0.1-0.7,0.1C474.5,25.3,474.3,25.1,474.3,25.1"/>
			<path class="st13" d="M495.5,22.1C495.5,22,495.4,22,495.5,22.1c-0.1-0.1-0.3-0.2-0.5-0.2c-0.3,0-0.5,0-0.6,0.1
				c-0.2,0.1-0.3,0.2-0.4,0.3l0-0.3c0,0,0-0.1-0.1-0.1h-0.6c0,0-0.1,0-0.1,0.1v3.7c0,0,0,0.1,0.1,0.1h0.7c0,0,0.1,0,0.1-0.1v-1.9
				c0-0.3,0-0.5,0.1-0.7c0.1-0.2,0.1-0.3,0.2-0.4c0.1-0.1,0.2-0.2,0.3-0.2c0.1,0,0.2,0,0.3,0c0.1,0,0.3,0,0.3,0c0,0,0.1,0,0.1-0.1
				C495.3,22.5,495.4,22.2,495.5,22.1"/>
			<path class="st13" d="M489.3,20.4c-0.1,0-0.2,0-0.2-0.1c-0.1,0-0.2,0-0.3,0c-0.5,0-0.8,0.1-1.1,0.4c-0.2,0.3-0.4,0.6-0.5,1.1
				l0,0.2h-0.6c0,0-0.1,0-0.1,0.1l-0.1,0.5c0,0,0,0.1,0.1,0.1h0.6l-0.6,3.1c0,0.3-0.1,0.5-0.1,0.6c-0.1,0.2-0.1,0.3-0.2,0.4
				c-0.1,0.1-0.1,0.1-0.2,0.2c-0.1,0-0.2,0-0.3,0c-0.1,0-0.1,0-0.2,0c-0.1,0-0.1,0-0.1,0c0,0-0.1,0-0.1,0c0,0.1-0.2,0.5-0.2,0.5
				c0,0,0,0.1,0,0.1c0.1,0,0.1,0,0.2,0.1c0.1,0,0.3,0,0.4,0c0.2,0,0.4,0,0.6-0.1c0.2-0.1,0.3-0.2,0.5-0.3c0.1-0.2,0.2-0.3,0.3-0.6
				c0.1-0.2,0.2-0.5,0.2-0.8l0.6-3.2h0.8c0,0,0.1,0,0.1-0.1l0.1-0.5c0,0,0-0.1-0.1-0.1h-0.8c0,0,0-0.3,0.1-0.6
				c0-0.1,0.1-0.2,0.2-0.3c0.1-0.1,0.1-0.1,0.2-0.1c0.1,0,0.2,0,0.3,0c0.1,0,0.1,0,0.2,0c0.1,0,0.1,0,0.1,0c0.1,0,0.1,0,0.1,0
				L489.3,20.4C489.4,20.4,489.3,20.4,489.3,20.4"/>
			<path class="st13" d="M478.1,25.8C478.1,25.8,478.1,25.8,478.1,25.8l-0.7,0.1c0,0-0.1,0-0.1-0.1v-5.3c0,0,0-0.1,0.1-0.1h0.7
				c0,0,0.1,0,0.1,0.1V25.8z"/>
		</g>
	</g>
	<g>
		<g>
			<g>
				<path class="st21" d="M447,45.7c-3.8,0-7-3.3-7-7.3s3.2-7.3,7-7.3c0.2,0,0.3,0,0.5,0c1.6-3.5,5.1-5.8,9-5.8
					c4.1,0,7.8,2.5,9.2,6.3c3.4,0.3,6.3,3.4,6.3,7c0,3.8-3.1,7-6.7,7H447z"/>
				<path class="st1" d="M456.4,25.9c4.1,0,7.6,2.6,8.9,6.3c3.4,0.1,6.1,3.1,6.1,6.5c0,3.5-2.8,6.5-6.3,6.5H447
					c-3.6,0-6.6-3.2-6.6-6.8c0-3.6,2.9-6.8,6.6-6.8c0.2,0,0.5,0,0.7,0C449.1,28.3,452.5,25.9,456.4,25.9 M456.4,25
					c-4,0-7.5,2.2-9.3,5.7c-0.1,0-0.1,0-0.2,0c-4,0-7.5,3.5-7.5,7.7c0,4.2,3.4,7.7,7.5,7.7h18.2c3.9,0,7.2-3.4,7.2-7.4
					c0-3.7-2.9-7-6.4-7.4C464.3,27.5,460.6,25,456.4,25L456.4,25z"/>
			</g>
		</g>
		<g>
			<polyline class="st13" points="447.1,43 456,43 464.8,34.3 447.1,34.3 447.1,43 			"/>
			<path class="st23" d="M457.6,35.9l-1.7,0v4.1l-1.5-4.1h-1.5l-1.3,3.5c-0.1-0.9-1-1.2-1.8-1.4c-0.5-0.2-1-0.4-1-0.6
				c0-0.2,0.3-0.4,0.8-0.4c0.4,0,0.7,0,1.3,0.3l0.6-1.1c-0.6-0.3-1.3-0.5-2-0.5h0c-0.7,0-1.4,0.2-1.7,0.6c-0.3,0.3-0.4,0.6-0.4,1
				c0,0.5,0.2,0.9,0.6,1.2c0.3,0.3,0.8,0.4,1.2,0.5c0.5,0.1,0.9,0.3,0.9,0.6c0,0.1,0,0.2-0.1,0.3c-0.1,0.1-0.3,0.2-0.6,0.2
				c-0.5,0-0.9-0.1-1.4-0.4l-0.5,1.1c0.6,0.3,1.3,0.5,2,0.5l0.1,0c0.6,0,1.1-0.2,1.5-0.5c0,0,0,0,0.1-0.1l-0.2,0.5h1.6l0.3-0.8
				c0.3,0.1,0.6,0.1,0.9,0.1c0.3,0,0.6-0.1,0.9-0.1l0.3,0.8h2.6v-1.7h0.6c1.4,0,2.2-0.7,2.2-1.9C460,36.5,459.2,35.9,457.6,35.9z
				 M453.5,39.5c-0.2,0-0.4,0-0.6-0.1l0.6-1.7h0l0.5,1.7C453.9,39.4,453.7,39.5,453.5,39.5z M457.7,38.5h-0.4v-1.4h0.4
				c0.5,0,0.9,0.2,0.9,0.7C458.6,38.3,458.2,38.5,457.7,38.5"/>
			<path class="st24" d="M458.1,42.5c0-0.3,0.2-0.5,0.5-0.5c0.3,0,0.5,0.2,0.5,0.5c0,0.3-0.2,0.5-0.5,0.5
				C458.3,42.9,458.1,42.7,458.1,42.5z M458.6,43c0.3,0,0.6-0.2,0.6-0.6c0-0.3-0.3-0.6-0.6-0.6c-0.3,0-0.6,0.2-0.6,0.6
				C458,42.8,458.3,43,458.6,43z M458.5,42.5h0.1l0.2,0.3h0.1l-0.2-0.3c0.1,0,0.2-0.1,0.2-0.2c0-0.1-0.1-0.2-0.2-0.2h-0.2v0.7h0.1
				V42.5z M458.5,42.4v-0.2h0.1c0.1,0,0.1,0,0.1,0.1c0,0.1-0.1,0.1-0.2,0.1H458.5z"/>
		</g>
	</g>
	<g>
		<g>
			<g>
				<path class="st21" d="M458.7,74.9c-7.4,0-13.6-6.5-13.6-14.1c0-7.6,6.2-14.1,13.6-14.1c0.4,0,0.8,0,1.2,0.1
					c3.1-7,10-11.5,17.7-11.5c8.1,0,15.3,5.1,18.1,12.6c6.7,0.3,12.4,6.5,12.4,13.5c0,7.3-6,13.5-13,13.5H458.7z"/>
				<path class="st1" d="M477.5,35.7c8.2,0,15.2,5.3,17.8,12.6c6.8,0.2,12.3,6.2,12.3,13.1c0,6.9-5.6,13.1-12.6,13.1h-36.4
					c-7.3,0-13.1-6.4-13.1-13.7c0-7.3,5.9-13.7,13.1-13.7c0.5,0,1,0,1.5,0.1C463,40.4,469.7,35.7,477.5,35.7 M477.5,34.8
					c-7.8,0-14.7,4.5-18,11.5c-0.3,0-0.6,0-0.9,0c-7.6,0-14,6.7-14,14.6c0,7.9,6.4,14.6,14,14.6H495c7.3,0,13.5-6.4,13.5-14
					c0-7.2-5.7-13.4-12.5-13.9C493,39.8,485.7,34.8,477.5,34.8L477.5,34.8z"/>
			</g>
		</g>
		<g>
			<path class="st10" d="M457.4,54.5h1.9l1.2,4.6c0.2,0.8,0.4,2,0.4,2h0c0,0,0.2-1.2,0.4-2l1-4.7h1.8l1,4.7c0.2,0.8,0.4,2,0.4,2h0
				c0,0,0.3-1.2,0.5-2.1l1.2-4.6h1.9l-2.7,9.4h-1.8l-1.1-5c-0.2-0.7-0.3-1.7-0.3-1.7h0c0,0-0.1,1-0.3,1.7l-1.2,5h-1.8L457.4,54.5z"
				/>
			<path class="st10" d="M469.6,54.5h1.9l1.2,4.6c0.2,0.8,0.4,2,0.4,2h0c0,0,0.2-1.2,0.4-2l1-4.7h1.8l1,4.7c0.2,0.8,0.4,2,0.4,2h0
				c0,0,0.3-1.2,0.5-2.1l1.2-4.6h1.9l-2.7,9.4H477l-1.1-5c-0.2-0.7-0.3-1.7-0.3-1.7h0c0,0-0.1,1-0.3,1.7l-1.2,5h-1.8L469.6,54.5z"/>
			<path class="st10" d="M481.7,54.5h1.9l1.2,4.6c0.2,0.8,0.4,2,0.4,2h0c0,0,0.2-1.2,0.4-2l1-4.7h1.8l1,4.7c0.2,0.8,0.4,2,0.4,2h0
				c0,0,0.3-1.2,0.5-2.1l1.2-4.6h1.9l-2.7,9.4h-1.8l-1.1-5c-0.2-0.7-0.3-1.7-0.3-1.7h0c0,0-0.1,1-0.3,1.7l-1.2,5h-1.8L481.7,54.5z"
				/>
		</g>
	</g>
	<g>
		<g>
			<g>
				<path class="st21" d="M499.6,51.8c-6,0-11-5.2-11-11.5c0-6.2,5-11.5,11-11.5c0.3,0,0.6,0,0.9,0c2.5-5.6,8.1-9.3,14.3-9.3
					c6.5,0,12.4,4.1,14.7,10.2c5.5,0.3,10,5.3,10,11c0,6-4.8,11-10.6,11H499.6z"/>
				<path class="st1" d="M514.8,20c6.6,0,12.3,4.2,14.3,10.2c5.5,0.1,9.9,5,9.9,10.5c0,5.6-4.5,10.6-10.1,10.6h-29.3
					c-5.8,0-10.6-5.2-10.6-11c0-5.8,4.7-11,10.6-11c0.4,0,0.8,0,1.2,0.1C503.1,23.9,508.5,20,514.8,20 M514.8,19.2
					c-6.3,0-11.9,3.6-14.6,9.3c-0.2,0-0.4,0-0.6,0c-6.2,0-11.5,5.5-11.5,11.9c0,6.5,5.3,11.9,11.5,11.9h29.3c6,0,11-5.2,11-11.4
					c0-5.9-4.6-10.9-10.1-11.4C527.4,23.2,521.4,19.2,514.8,19.2L514.8,19.2z"/>
			</g>
		</g>
		<g>
			<path class="st10" d="M498.9,36.3l-5.2,2.1v5.7l5.3,2l2.7-1v-8L498.9,36.3L498.9,36.3z M499,44.8l-5.1-0.8l1.6-0.7v-4.6l3.5-1
				V44.8L499,44.8z"/>
			<path class="st10" d="M498.9,36.3l-5.2,2.1v5.7l5.3,2l2.7-1v-8L498.9,36.3L498.9,36.3z M499,44.8l-5.1-0.8l1.6-0.7v-4.6l3.5-1
				V44.8L499,44.8z"/>
			<path class="st10" d="M503.6,41.8c0-0.8,0.2-1.5,0.7-2c0.5-0.5,1.1-0.8,1.8-0.8c0.7,0,1.3,0.3,1.7,0.8c0.4,0.5,0.6,1.1,0.6,1.8
				c0,0.8-0.2,1.5-0.6,2c-0.5,0.5-1.1,0.8-1.8,0.8c-0.7,0-1.3-0.3-1.7-0.8C503.9,43.1,503.6,42.5,503.6,41.8L503.6,41.8z
				 M504.2,41.7c0,0.6,0.2,1.1,0.5,1.5c0.3,0.4,0.8,0.6,1.3,0.6c0.6,0,1.1-0.2,1.4-0.6c0.3-0.4,0.5-0.9,0.5-1.6s-0.2-1.2-0.5-1.6
				c-0.3-0.4-0.8-0.6-1.4-0.6c-0.6,0-1,0.2-1.4,0.6C504.4,40.6,504.2,41.1,504.2,41.7L504.2,41.7z"/>
			<path class="st10" d="M511,39.3c-0.1-0.1-0.3-0.1-0.4-0.1c-0.4,0-0.6,0.3-0.6,0.8c0,0.6,0,0.6,0,0.6c0.9,0,0.9,0,0.9,0
				c0,0.5,0,0.5,0,0.5c-0.9,0-0.9,0-0.9,0c0,3.2,0,3.2,0,3.2c-0.5,0-0.5,0-0.5,0c0-3.2,0-3.2,0-3.2c-0.6,0-0.6,0-0.6,0
				c0-0.5,0-0.5,0-0.5c0.6,0,0.6,0,0.6,0c0-0.6,0-0.6,0-0.6c0-0.4,0.1-0.7,0.3-0.9c0.2-0.2,0.5-0.3,0.8-0.3c0.2,0,0.3,0,0.4,0V39.3z
				"/>
			<path class="st10" d="M512.9,39.3c-0.1-0.1-0.3-0.1-0.4-0.1c-0.4,0-0.6,0.3-0.6,0.8c0,0.6,0,0.6,0,0.6c0.9,0,0.9,0,0.9,0
				c0,0.5,0,0.5,0,0.5c-0.9,0-0.9,0-0.9,0c0,3.2,0,3.2,0,3.2c-0.6,0-0.6,0-0.6,0c0-3.2,0-3.2,0-3.2c-0.6,0-0.6,0-0.6,0
				c0-0.5,0-0.5,0-0.5c0.6,0,0.6,0,0.6,0c0-0.6,0-0.6,0-0.6c0-0.4,0.1-0.7,0.3-0.9c0.2-0.2,0.5-0.3,0.8-0.3c0.2,0,0.3,0,0.4,0V39.3z
				"/>
			<path class="st10" d="M513.3,39.3c0-0.1,0-0.2,0.1-0.3c0.1-0.1,0.2-0.1,0.3-0.1c0.1,0,0.2,0,0.3,0.1c0.1,0.1,0.1,0.2,0.1,0.3
				c0,0.1,0,0.2-0.1,0.2c-0.1,0.1-0.2,0.1-0.3,0.1s-0.2,0-0.3-0.1C513.4,39.5,513.3,39.4,513.3,39.3L513.3,39.3z M513.4,44.3
				c0-3.7,0-3.7,0-3.7c0.5,0,0.5,0,0.5,0c0,3.7,0,3.7,0,3.7H513.4z"/>
			<path class="st10" d="M517.3,44.1c-0.3,0.2-0.6,0.3-1,0.3c-0.5,0-0.9-0.2-1.3-0.5c-0.3-0.3-0.5-0.8-0.5-1.3
				c0-0.6,0.2-1.1,0.5-1.5c0.3-0.4,0.8-0.6,1.4-0.6c0.3,0,0.6,0.1,0.8,0.2c0,0.6,0,0.6,0,0.6c-0.3-0.2-0.6-0.3-0.9-0.3
				c-0.4,0-0.7,0.2-0.9,0.4c-0.2,0.3-0.4,0.6-0.4,1.1c0,0.5,0.1,0.8,0.4,1.1c0.2,0.3,0.5,0.4,0.9,0.4c0.3,0,0.6-0.1,0.9-0.3V44.1z"
				/>
			<path class="st10" d="M520.7,42.6c-2.6,0-2.6,0-2.6,0c0,0.4,0.1,0.8,0.3,1s0.5,0.3,0.9,0.3c0.4,0,0.8-0.2,1.2-0.4
				c0,0.5,0,0.5,0,0.5c-0.3,0.2-0.8,0.4-1.3,0.4s-0.9-0.2-1.2-0.5c-0.3-0.3-0.5-0.8-0.5-1.4c0-0.6,0.2-1,0.5-1.4
				c0.3-0.4,0.7-0.6,1.2-0.6c0.5,0,0.9,0.2,1.1,0.5c0.3,0.3,0.4,0.7,0.4,1.3V42.6z M520.1,42.1c0-0.3-0.1-0.6-0.3-0.8
				c-0.2-0.2-0.4-0.3-0.7-0.3c-0.3,0-0.5,0.1-0.7,0.3c-0.2,0.2-0.3,0.5-0.4,0.8H520.1z"/>
			<polygon class="st10" points="502.4,44.6 502.2,44.6 502.2,45.1 502.1,45.1 502.1,44.6 501.9,44.6 501.9,44.5 502.4,44.5 
				502.4,44.6 			"/>
			<path class="st10" d="M503,45.1c0-0.4,0-0.4,0-0.4c0,0,0-0.1,0-0.1l0,0c0,0,0,0,0,0c-0.2,0.5-0.2,0.5-0.2,0.5c0,0,0,0,0,0
				c-0.2-0.5-0.2-0.5-0.2-0.5s0,0,0,0l0,0c0,0,0,0.1,0,0.1c0,0.4,0,0.4,0,0.4c-0.1,0-0.1,0-0.1,0c0-0.6,0-0.6,0-0.6
				c0.2,0,0.2,0,0.2,0c0.2,0.4,0.2,0.4,0.2,0.4s0,0,0,0.1c0,0,0,0,0,0c0,0,0-0.1,0-0.1c0.2-0.4,0.2-0.4,0.2-0.4c0.2,0,0.2,0,0.2,0
				c0,0.6,0,0.6,0,0.6H503z"/>
			<path class="st10" d="M522.7,44.1c0-0.7,0-0.7,0-0.7c0.4,0.3,0.8,0.4,1.3,0.4c0.4,0,0.7-0.1,0.9-0.3s0.3-0.5,0.3-0.8
				c0-0.7-0.5-1.1-1.5-1.1c-0.5,0-0.5,0-0.5,0c0-0.5,0-0.5,0-0.5c0.5,0,0.5,0,0.5,0c0.9,0,1.4-0.3,1.4-1c0-0.6-0.3-0.9-1.1-0.9
				c-0.4,0-0.8,0.2-1.1,0.4c0-0.6,0-0.6,0-0.6c0.4-0.2,0.8-0.3,1.3-0.3c0.5,0,0.8,0.1,1.1,0.4c0.3,0.3,0.4,0.6,0.4,0.9
				c0,0.7-0.4,1.2-1.1,1.4c0,0,0,0,0,0c0.4,0,0.7,0.2,0.9,0.4c0.2,0.2,0.3,0.5,0.3,0.9c0,0.5-0.2,0.9-0.5,1.2
				c-0.3,0.3-0.8,0.5-1.4,0.5C523.4,44.4,523,44.3,522.7,44.1L522.7,44.1z"/>
			<path class="st10" d="M530.1,38.8c0,0.6,0,0.6,0,0.6c-0.3-0.2-0.6-0.2-0.9-0.2c-0.5,0-0.9,0.2-1.2,0.7c-0.3,0.4-0.4,1-0.4,1.7
				l0,0c0.3-0.5,0.7-0.8,1.3-0.8c0.5,0,0.9,0.2,1.1,0.5c0.3,0.3,0.5,0.7,0.5,1.2s-0.2,1-0.5,1.3c-0.3,0.3-0.8,0.5-1.2,0.5
				c-0.6,0-1-0.2-1.3-0.7c-0.3-0.5-0.5-1.1-0.5-1.8c0-1,0.2-1.8,0.6-2.3c0.4-0.6,0.9-0.9,1.6-0.9C529.5,38.7,529.8,38.8,530.1,38.8
				L530.1,38.8z M528.7,41.4c-0.3,0-0.6,0.1-0.8,0.3c-0.2,0.2-0.3,0.5-0.3,0.8c0,0.4,0.1,0.7,0.3,1s0.5,0.4,0.8,0.4
				c0.3,0,0.6-0.1,0.8-0.3c0.2-0.2,0.3-0.5,0.3-0.9c0-0.4-0.1-0.7-0.3-0.9C529.3,41.5,529,41.4,528.7,41.4L528.7,41.4z"/>
			<path class="st10" d="M531.3,44.2c0-0.7,0-0.7,0-0.7c0.4,0.2,0.8,0.3,1.1,0.3c0.4,0,0.7-0.1,0.9-0.3c0.3-0.2,0.4-0.5,0.4-0.9
				c0-0.3-0.1-0.6-0.4-0.8c-0.2-0.2-0.6-0.3-1.1-0.3c-0.2,0-0.5,0-0.9,0c0-2.8,0-2.8,0-2.8c2.7,0,2.7,0,2.7,0c0,0.6,0,0.6,0,0.6
				c-2.1,0-2.1,0-2.1,0c0,1.6,0,1.6,0,1.6c0.2,0,0.3,0,0.5,0c0.6,0,1,0.2,1.4,0.5c0.3,0.3,0.5,0.7,0.5,1.2c0,0.6-0.2,1-0.5,1.3
				c-0.3,0.3-0.8,0.5-1.4,0.5C531.9,44.4,531.6,44.3,531.3,44.2L531.3,44.2z"/>
		</g>
	</g>
	
		<use xlink:href="#New_Symbol_4"  width="77.7" height="85.4" id="XMLID_14_" x="-38.8" y="-42.7" transform="matrix(0.3527 0 0 -0.3527 477.487 142.3067)" style="overflow:visible;"/>
	<line class="st25" x1="504" y1="361.7" x2="514" y2="444.3"/>
	<line class="st25" x1="550.9" y1="338.5" x2="595" y2="419"/>
	<line class="st25" x1="353.3" y1="419" x2="397.4" y2="338.5"/>
	<line class="st25" x1="434" y1="444.3" x2="444" y2="361.7"/>
	<g>
		<g>
			<g>
				<path class="st18" d="M354.9,434.7c-8.1,0-14.8-6.6-14.8-14.8s6.6-14.8,14.8-14.8s14.8,6.6,14.8,14.8S363,434.7,354.9,434.7z"/>
				<path class="st1" d="M354.9,405.5c8,0,14.4,6.5,14.4,14.4c0,8-6.5,14.4-14.4,14.4s-14.4-6.5-14.4-14.4
					C340.5,412,346.9,405.5,354.9,405.5 M354.9,404.8c-8.3,0-15.1,6.8-15.1,15.1s6.8,15.1,15.1,15.1s15.1-6.8,15.1-15.1
					S363.2,404.8,354.9,404.8L354.9,404.8z"/>
			</g>
			<path class="st26" d="M347.8,422v3.6c0,1,3.2,1.8,7.1,1.8s7.1-0.8,7.1-1.8V422"/>
			<path class="st26" d="M347.8,418.1v3.6c0,1,3.2,1.8,7.1,1.8s7.1-0.8,7.1-1.8v-3.6"/>
			<path class="st26" d="M347.8,414.2v3.6c0,1,3.2,1.8,7.1,1.8s7.1-0.8,7.1-1.8v-3.6"/>
			<ellipse class="st26" cx="354.9" cy="414.2" rx="7.1" ry="1.8"/>
		</g>
	</g>
	<g>
		<g>
			<g>
				<path class="st18" d="M593.5,434.7c-8.1,0-14.8-6.6-14.8-14.8s6.6-14.8,14.8-14.8s14.8,6.6,14.8,14.8S601.6,434.7,593.5,434.7z"
					/>
				<path class="st1" d="M593.5,405.5c8,0,14.4,6.5,14.4,14.4c0,8-6.5,14.4-14.4,14.4s-14.4-6.5-14.4-14.4
					C579,412,585.5,405.5,593.5,405.5 M593.5,404.8c-8.3,0-15.1,6.8-15.1,15.1s6.8,15.1,15.1,15.1s15.1-6.8,15.1-15.1
					S601.8,404.8,593.5,404.8L593.5,404.8z"/>
			</g>
			<g>
				<path class="st26" d="M585.9,424.6h9.2V419c0-0.3-0.2-0.6-0.6-0.6h-8.1c-0.3,0-0.6,0.2-0.6,0.6V424.6z"/>
				<line class="st26" x1="584" y1="424.6" x2="596.3" y2="424.6"/>
				<g>
					<circle class="st26" cx="598.5" cy="417.4" r="2.2"/>
					<path class="st26" d="M603,424.6c0-2.4-2-4.4-4.4-4.4c-2.4,0-4.4,2-4.4,4.4H603z"/>
				</g>
			</g>
		</g>
	</g>
	<g>
		<g>
			<path class="st18" d="M434.4,459.5c-8.1,0-14.8-6.6-14.8-14.8s6.6-14.8,14.8-14.8s14.8,6.6,14.8,14.8S442.6,459.5,434.4,459.5z"
				/>
			<path class="st1" d="M434.4,430.2c8,0,14.4,6.5,14.4,14.4c0,8-6.5,14.4-14.4,14.4s-14.4-6.5-14.4-14.4
				C420,436.7,426.5,430.2,434.4,430.2 M434.4,429.6c-8.3,0-15.1,6.8-15.1,15.1s6.8,15.1,15.1,15.1s15.1-6.8,15.1-15.1
				S442.8,429.6,434.4,429.6L434.4,429.6z"/>
		</g>
		<g>
			<polyline class="st26" points="429.2,438.2 429.2,437 439.7,437 439.7,438.2 			"/>
			<rect x="427.5" y="438.2" class="st26" width="13.8" height="14.2"/>
			<g>
				<line class="st26" x1="425.5" y1="452.4" x2="427.5" y2="452.4"/>
				<line class="st26" x1="441.3" y1="452.4" x2="443.3" y2="452.4"/>
			</g>
			<g>
				<line class="st26" x1="429.2" y1="440.6" x2="432.2" y2="440.6"/>
				<line class="st26" x1="429.2" y1="442" x2="432.2" y2="442"/>
				<line class="st26" x1="429.2" y1="443.4" x2="432.2" y2="443.4"/>
				<line class="st26" x1="429.2" y1="444.7" x2="432.2" y2="444.7"/>
				<line class="st26" x1="429.2" y1="446.1" x2="432.2" y2="446.1"/>
				<polyline class="st27" points="435,452.4 435,447.8 439.7,447.8 439.7,452.4 				"/>
			</g>
		</g>
	</g>
	<g>
		<g>
			<path class="st18" d="M514,459.5c-8.1,0-14.8-6.6-14.8-14.8s6.6-14.8,14.8-14.8c8.1,0,14.8,6.6,14.8,14.8S522.1,459.5,514,459.5z
				"/>
			<path class="st1" d="M514,430.2c8,0,14.4,6.5,14.4,14.4c0,8-6.5,14.4-14.4,14.4c-8,0-14.4-6.5-14.4-14.4
				C499.5,436.7,506,430.2,514,430.2 M514,429.6c-8.3,0-15.1,6.8-15.1,15.1s6.8,15.1,15.1,15.1c8.3,0,15.1-6.8,15.1-15.1
				S522.3,429.6,514,429.6L514,429.6z"/>
		</g>
		<g>
			<g>
				<path class="st26" d="M520.7,440.7c-0.9-2.6-3.4-4.5-6.4-4.5c-2.8,0-5.2,1.7-6.2,4.1c-0.2,0-0.3,0-0.5,0c-2.6,0-4.7,2.3-4.7,4.9
					c0,2.6,2.1,4.9,4.7,4.9h13c2.5,0,4.5-2.2,4.5-4.7C525.1,443,523.1,440.8,520.7,440.7z"/>
			</g>
			<g>
				<path class="st26" d="M509.8,449.9v2.1c0,0.6,1.9,1.1,4.2,1.1c2.3,0,4.2-0.5,4.2-1.1v-2.1"/>
				<path class="st26" d="M509.8,447.6v2.1c0,0.6,1.9,1.1,4.2,1.1c2.3,0,4.2-0.5,4.2-1.1v-2.1"/>
				<path class="st26" d="M509.8,445.3v2.1c0,0.6,1.9,1.1,4.2,1.1c2.3,0,4.2-0.5,4.2-1.1v-2.1"/>
				<ellipse class="st26" cx="514" cy="445.3" rx="4.2" ry="1.1"/>
			</g>
		</g>
	</g>
	<g>
		<path class="st10" d="M329.6,439h2.9c2.4,0,3.5,1.6,3.5,4s-1.2,3.9-3.6,3.9h-2.8V439z M332.3,446c1.8,0,2.6-1.2,2.6-3
			c0-1.8-0.7-3.1-2.5-3.1h-1.8v6.1H332.3z"/>
		<path class="st10" d="M340.3,446L340.3,446c-0.4,0.4-0.9,0.9-1.9,0.9c-1.1,0-1.9-0.5-1.9-1.6c0-1.3,1.1-1.6,2.5-1.8
			c0.8-0.1,1.4-0.2,1.4-0.8c0-0.6-0.5-1-1.3-1c-0.9,0-1.4,0.4-1.4,1.3h-0.9c0-1.1,0.8-1.9,2.3-1.9c1.2,0,2.1,0.5,2.1,1.8v2.7
			c0,0.5,0.1,0.7,0.6,0.6h0v0.6c-0.1,0-0.3,0.1-0.5,0.1C340.7,446.9,340.4,446.6,340.3,446z M340.4,444.7v-1
			c-0.3,0.2-0.8,0.3-1.3,0.4c-0.9,0.2-1.6,0.3-1.6,1.2c0,0.8,0.6,0.9,1.2,0.9C339.8,446.3,340.4,445.4,340.4,444.7z"/>
		<path class="st10" d="M342,441.2h0.8v-1.8h0.9v1.8h1.1v0.7h-1.1v3.7c0,0.4,0.2,0.5,0.6,0.5c0.2,0,0.4,0,0.5-0.1h0v0.8
			c-0.2,0-0.5,0.1-0.7,0.1c-0.7,0-1.3-0.3-1.3-1.1v-3.9H342V441.2z"/>
		<path class="st10" d="M349.2,446L349.2,446c-0.4,0.4-0.9,0.9-1.9,0.9c-1.1,0-1.9-0.5-1.9-1.6c0-1.3,1.1-1.6,2.5-1.8
			c0.8-0.1,1.4-0.2,1.4-0.8c0-0.6-0.5-1-1.3-1c-0.9,0-1.4,0.4-1.4,1.3h-0.9c0-1.1,0.8-1.9,2.3-1.9c1.2,0,2.1,0.5,2.1,1.8v2.7
			c0,0.5,0.1,0.7,0.6,0.6h0v0.6c-0.1,0-0.3,0.1-0.5,0.1C349.6,446.9,349.3,446.6,349.2,446z M349.2,444.7v-1
			c-0.3,0.2-0.8,0.3-1.3,0.4c-0.9,0.2-1.6,0.3-1.6,1.2c0,0.8,0.6,0.9,1.2,0.9C348.7,446.3,349.2,445.4,349.2,444.7z"/>
		<path class="st10" d="M351,444c0-1.6,1.1-3,2.8-3c1.3,0,2.2,0.8,2.4,2h-0.9c-0.1-0.8-0.7-1.2-1.5-1.2c-1.2,0-1.8,1-1.8,2.3
			c0,1.3,0.6,2.2,1.8,2.2c0.9,0,1.5-0.5,1.6-1.4h0.9c-0.1,1.4-1,2.2-2.4,2.2C352.1,447,351,445.7,351,444z"/>
		<path class="st10" d="M356.7,444c0-1.6,1.1-3,2.7-3c1.7,0,2.6,1.3,2.6,3.2h-4.4c0.1,1.2,0.7,2,1.8,2c0.8,0,1.4-0.4,1.6-1.2h0.9
			c-0.3,1.2-1.2,1.9-2.4,1.9C357.7,447,356.7,445.7,356.7,444z M357.7,443.5h3.4c-0.1-1.1-0.6-1.8-1.7-1.8
			C358.4,441.7,357.8,442.5,357.7,443.5z"/>
		<path class="st10" d="M363.8,441.9L363.8,441.9c0.4-0.5,1-0.9,1.8-0.9c1.2,0,1.9,0.6,1.9,1.8v4h-0.9v-3.9c0-0.7-0.5-1.2-1.3-1.2
			c-0.9,0-1.6,0.6-1.6,1.6v3.5h-0.9v-5.7h0.9V441.9z"/>
		<path class="st10" d="M368.2,441.2h0.8v-1.8h0.9v1.8h1.1v0.7H370v3.7c0,0.4,0.2,0.5,0.6,0.5c0.2,0,0.4,0,0.5-0.1h0v0.8
			c-0.2,0-0.5,0.1-0.7,0.1c-0.7,0-1.3-0.3-1.3-1.1v-3.9h-0.8V441.2z"/>
		<path class="st10" d="M371.6,444c0-1.6,1.1-3,2.7-3c1.7,0,2.6,1.3,2.6,3.2h-4.4c0.1,1.2,0.7,2,1.8,2c0.8,0,1.4-0.4,1.6-1.2h0.9
			c-0.3,1.2-1.2,1.9-2.4,1.9C372.6,447,371.6,445.7,371.6,444z M372.5,443.5h3.4c-0.1-1.1-0.6-1.8-1.7-1.8
			C373.2,441.7,372.7,442.5,372.5,443.5z"/>
		<path class="st10" d="M378.7,442.1L378.7,442.1c0.4-0.6,1-1,1.7-1c0.2,0,0.3,0,0.4,0.1v0.9h0c-0.1,0-0.2-0.1-0.4-0.1
			c-0.9,0-1.7,0.7-1.7,1.7v3.2h-0.9v-5.7h0.9V442.1z"/>
	</g>
	<g>
		<path class="st10" d="M418.4,464.4h3.3c0.8,0,1.5,0.2,1.9,0.7c0.3,0.3,0.5,0.8,0.5,1.3c0,0.9-0.5,1.4-1.3,1.7v0
			c0.9,0.2,1.6,0.8,1.6,1.9c0,0.6-0.2,1.1-0.6,1.5c-0.4,0.5-1.1,0.7-2,0.7h-3.5V464.4z M421.6,467.8c1,0,1.5-0.5,1.5-1.3
			c0-0.8-0.5-1.2-1.4-1.2h-2.4v2.5H421.6z M421.8,471.4c0.6,0,1-0.1,1.2-0.4c0.2-0.2,0.4-0.5,0.4-0.9c0-1-0.7-1.5-1.7-1.5h-2.4v2.8
			H421.8z"/>
		<path class="st10" d="M426.2,467.5L426.2,467.5c0.4-0.6,1-1,1.7-1c0.2,0,0.3,0,0.4,0.1v0.9h0c-0.1,0-0.2-0.1-0.4-0.1
			c-0.9,0-1.7,0.7-1.7,1.7v3.2h-0.9v-5.7h0.9V467.5z"/>
		<path class="st10" d="M432.4,471.5L432.4,471.5c-0.4,0.4-0.9,0.9-1.9,0.9c-1.1,0-1.9-0.5-1.9-1.6c0-1.3,1.1-1.6,2.5-1.8
			c0.8-0.1,1.4-0.2,1.4-0.8c0-0.6-0.5-1-1.3-1c-0.9,0-1.4,0.4-1.4,1.3h-0.9c0-1.1,0.8-1.9,2.3-1.9c1.2,0,2.1,0.5,2.1,1.8v2.7
			c0,0.5,0.1,0.7,0.6,0.6h0v0.6c-0.1,0-0.3,0.1-0.5,0.1C432.8,472.3,432.5,472.1,432.4,471.5z M432.4,470.2v-1
			c-0.3,0.2-0.8,0.3-1.3,0.4c-0.9,0.2-1.6,0.3-1.6,1.2c0,0.8,0.6,0.9,1.2,0.9C431.9,471.7,432.4,470.8,432.4,470.2z"/>
		<path class="st10" d="M435.4,467.3L435.4,467.3c0.4-0.5,1-0.9,1.8-0.9c1.2,0,1.9,0.6,1.9,1.8v4h-0.9v-3.9c0-0.7-0.5-1.2-1.3-1.2
			c-0.9,0-1.6,0.6-1.6,1.6v3.5h-0.9v-5.7h0.9V467.3z"/>
		<path class="st10" d="M440,469.4c0-1.6,1.1-3,2.8-3c1.3,0,2.2,0.8,2.4,2h-0.9c-0.1-0.8-0.7-1.2-1.5-1.2c-1.2,0-1.8,1-1.8,2.3
			c0,1.3,0.6,2.2,1.8,2.2c0.9,0,1.5-0.5,1.6-1.4h0.9c-0.1,1.4-1,2.2-2.4,2.2C441,472.4,440,471.1,440,469.4z"/>
		<path class="st10" d="M446.9,467.3L446.9,467.3c0.4-0.5,1-0.9,1.8-0.9c1.2,0,1.9,0.6,1.9,1.8v4h-0.9v-3.9c0-0.7-0.5-1.2-1.3-1.2
			c-0.9,0-1.6,0.6-1.6,1.6v3.5H446v-7.9h0.9V467.3z"/>
	</g>
	<g>
		<path class="st10" d="M499.3,468.4c0-2.3,1.4-4.1,3.7-4.1c1.8,0,2.9,1.1,3.2,2.5h-1c-0.2-1-1-1.6-2.2-1.6c-1.7,0-2.7,1.4-2.7,3.2
			c0,1.9,1.1,3.2,2.7,3.2c1.5,0,2.2-1,2.3-2.2h1c0,0.8-0.4,1.7-0.9,2.2c-0.5,0.5-1.4,0.8-2.4,0.8
			C500.8,472.4,499.3,470.7,499.3,468.4z"/>
		<path class="st10" d="M507.3,464.4h0.9v7.9h-0.9V464.4z"/>
		<path class="st10" d="M509.2,469.5c0-1.6,1.1-3,2.8-3c1.7,0,2.7,1.3,2.7,3c0,1.7-1,3-2.7,3C510.2,472.4,509.2,471.1,509.2,469.5z
			 M513.7,469.5c0-1.3-0.6-2.3-1.8-2.3c-1.2,0-1.8,1-1.8,2.3c0,1.3,0.6,2.2,1.8,2.2C513.1,471.7,513.7,470.7,513.7,469.5z"/>
		<path class="st10" d="M519.2,472.3v-0.8h0c-0.4,0.5-0.9,0.9-1.7,0.9c-1.2,0-1.9-0.7-1.9-1.9v-3.9h0.9v3.9c0,0.7,0.5,1.2,1.3,1.2
			c0.9,0,1.5-0.7,1.5-1.6v-3.5h0.9v5.7H519.2z"/>
		<path class="st10" d="M520.9,469.5c0-1.9,1.1-3,2.5-3c0.8,0,1.4,0.4,1.8,0.9h0v-3h0.9v7.9h-0.9v-0.7h0c-0.4,0.6-1,0.9-1.8,0.9
			C521.9,472.5,520.9,471.3,520.9,469.5z M525.3,469.5c0-1.3-0.6-2.2-1.8-2.2c-1.1,0-1.6,1-1.6,2.2c0,1.3,0.5,2.2,1.6,2.2
			C524.8,471.7,525.3,470.8,525.3,469.5z"/>
	</g>
	<g>
		<path class="st10" d="M580.1,437.4h1.3l2.6,6.5h0l2.5-6.5h1.3v7.9h-0.9v-6.5h0c0,0-0.2,0.6-0.4,1l-2.2,5.5h-0.8l-2.2-5.5
			c-0.2-0.4-0.4-1-0.4-1h0v6.5h-0.9V437.4z"/>
		<path class="st10" d="M588.8,442.4c0-1.6,1.1-3,2.8-3c1.7,0,2.7,1.3,2.7,3c0,1.7-1,3-2.7,3C589.8,445.4,588.8,444.1,588.8,442.4z
			 M593.3,442.4c0-1.3-0.6-2.3-1.8-2.3c-1.2,0-1.8,1-1.8,2.3c0,1.3,0.6,2.2,1.8,2.2C592.7,444.7,593.3,443.7,593.3,442.4z"/>
		<path class="st10" d="M596.1,444.5L596.1,444.5l0,0.7h-0.9v-7.9h0.9v3h0c0.4-0.6,1-0.9,1.8-0.9c1.4,0,2.4,1.1,2.4,3
			c0,1.8-0.9,3-2.5,3C597.1,445.4,596.5,445.2,596.1,444.5z M599.4,442.5c0-1.3-0.5-2.2-1.6-2.2c-1.2,0-1.8,1-1.8,2.2
			c0,1.3,0.6,2.2,1.8,2.2C598.9,444.7,599.4,443.7,599.4,442.5z"/>
		<path class="st10" d="M601.2,437.4h0.9v1.1h-0.9V437.4z M601.2,439.6h0.9v5.7h-0.9V439.6z"/>
		<path class="st10" d="M603.3,437.4h0.9v7.9h-0.9V437.4z"/>
		<path class="st10" d="M605.1,442.4c0-1.6,1.1-3,2.7-3c1.7,0,2.6,1.3,2.6,3.2h-4.4c0.1,1.2,0.7,2,1.8,2c0.8,0,1.4-0.4,1.6-1.2h0.9
			c-0.3,1.2-1.2,1.9-2.4,1.9C606.2,445.4,605.1,444.1,605.1,442.4z M606.1,442h3.4c-0.1-1.1-0.6-1.8-1.7-1.8
			C606.8,440.1,606.2,440.9,606.1,442z"/>
	</g>
	
		<use xlink:href="#New_Symbol_4"  width="77.7" height="85.4" id="XMLID_19_" x="-38.8" y="-42.7" transform="matrix(0.3836 0 0 -0.3836 503.9661 361.6923)" style="overflow:visible;"/>
	
		<use xlink:href="#New_Symbol_4"  width="77.7" height="85.4" id="XMLID_18_" x="-38.8" y="-42.7" transform="matrix(0.3836 0 0 -0.3836 444.4171 361.6923)" style="overflow:visible;"/>
	<g>
		
			<use xlink:href="#New_Symbol_4"  width="77.7" height="85.4" id="XMLID_15_" x="-38.8" y="-42.7" transform="matrix(0.3836 0 0 -0.3836 550.4501 338.4593)" style="overflow:visible;"/>
		
			<use xlink:href="#New_Symbol_4"  width="77.7" height="85.4" id="XMLID_1_" x="-38.8" y="-42.7" transform="matrix(0.3836 0 0 -0.3836 397.933 338.4593)" style="overflow:visible;"/>
	</g>
</g>
</svg>
